<svg version="1.0" xmlns="http://www.w3.org/2000/svg"
 width="1200.000000pt" height="800.000000pt" viewBox="0 0 1200.000000 800.000000"
 preserveAspectRatio="xMidYMid meet">
<g transform="translate(0.000000,800.000000) scale(0.100000,-0.100000)" stroke="none" fill="#ffcc00">
<path d="M3610 7195 c-7 -9 -19 -14 -27 -11 -8 3 -16 -1 -20 -10 -5 -13 -7
-13 -23 1 -13 12 -19 13 -22 4 -5 -16 -49 -20 -65 -7 -10 8 -13 4 -13 -13 -1
-23 -1 -23 -15 -5 -13 17 -15 18 -15 3 0 -19 -16 -23 -22 -6 -5 15 -48 2 -48
-14 0 -8 -19 -13 -52 -13 -30 -1 -54 -6 -56 -12 -2 -7 -10 -12 -18 -12 -8 0
-14 -4 -14 -10 0 -5 -15 -10 -33 -10 -21 0 -41 -8 -52 -20 -10 -11 -27 -20
-38 -20 -10 0 -36 -13 -57 -30 -21 -16 -43 -30 -48 -30 -6 0 -17 -6 -24 -13
-7 -6 -31 -21 -52 -32 -22 -11 -53 -32 -70 -47 -17 -16 -34 -28 -38 -28 -5 0
-8 -7 -8 -15 0 -8 -8 -15 -18 -15 -10 0 -25 -8 -34 -17 -9 -10 -38 -34 -64
-53 -49 -36 -204 -185 -204 -196 0 -3 -11 -15 -25 -26 -14 -11 -25 -24 -25
-29 0 -6 -11 -25 -24 -42 -27 -37 -56 -95 -56 -112 0 -6 -11 -22 -25 -35 -14
-13 -25 -31 -25 -40 0 -9 -3 -20 -7 -24 -12 -12 -31 -76 -22 -76 4 0 1 -12 -7
-27 -7 -16 -14 -35 -14 -43 0 -9 -6 -22 -12 -29 -11 -11 -8 -12 16 -7 l28 7
-27 -23 c-16 -14 -30 -40 -35 -63 -5 -22 -14 -60 -20 -85 -8 -31 -8 -46 -1
-48 16 -5 13 -22 -4 -22 -9 0 -15 -10 -15 -26 0 -19 4 -25 15 -20 9 3 15 0 15
-10 0 -9 -9 -18 -20 -21 -11 -3 -21 -10 -21 -17 -1 -6 -3 -26 -5 -44 -2 -20 0
-31 6 -27 16 10 11 -11 -5 -25 -9 -7 -14 -18 -12 -24 3 -6 -3 -20 -12 -31 -16
-19 -16 -19 11 -2 15 9 33 17 40 17 7 0 18 12 25 26 10 22 10 25 -3 20 -22 -8
-17 7 16 52 17 23 26 42 21 42 -6 0 -13 -4 -16 -10 -3 -5 -11 -10 -18 -10 -25
0 20 30 53 35 l35 6 -35 -30 c-19 -17 -28 -31 -20 -31 7 0 22 8 32 17 16 14
21 15 28 4 4 -8 6 -21 3 -30 -3 -9 10 0 30 18 35 33 48 61 29 61 -5 0 -17 -9
-27 -20 -24 -26 -36 -25 -32 2 2 12 15 28 28 36 24 14 24 14 -1 -7 -14 -11
-20 -21 -14 -21 18 0 63 25 69 38 3 8 0 10 -8 6 -8 -5 -7 -2 2 9 8 10 16 15
19 13 3 -3 19 6 36 20 33 28 99 103 79 91 -6 -4 -18 -4 -27 -1 -13 5 -12 11
11 40 18 24 21 33 9 28 -13 -5 -15 -2 -9 12 6 17 5 17 -10 5 -9 -7 -17 -9 -17
-5 0 5 24 24 53 41 56 33 96 70 64 57 -15 -5 -15 -2 -5 27 6 19 18 43 27 54
15 18 15 19 -1 6 -15 -11 -18 -11 -18 2 0 9 5 19 10 22 6 4 7 11 4 17 -5 8 -1
9 10 5 9 -4 15 -3 12 2 -3 5 1 14 9 21 7 6 12 17 9 24 -3 8 4 16 15 19 14 3
21 14 22 31 3 48 4 51 26 54 14 2 20 8 17 17 -3 8 3 27 15 43 11 16 17 32 13
36 -9 10 18 26 45 26 16 0 21 4 16 16 -3 9 -12 13 -22 10 -13 -5 -12 -3 2 8
12 9 14 16 8 21 -16 9 -13 38 3 32 8 -3 13 1 12 11 -1 11 8 16 29 16 16 1 30
6 30 13 0 7 9 19 20 26 15 12 17 18 7 29 -10 12 -7 17 16 29 15 7 28 14 30 15
2 1 -1 12 -7 23 -9 17 -9 20 3 15 9 -3 20 3 28 15 7 12 19 21 26 21 7 0 10 5
7 10 -3 6 1 13 9 16 9 3 16 12 16 19 0 8 9 17 20 20 11 3 20 13 20 20 0 8 18
20 41 26 27 9 44 21 50 36 5 13 17 23 28 23 11 0 26 7 34 15 8 7 27 17 43 21
16 4 35 13 42 21 7 7 21 14 30 14 31 2 37 4 67 21 30 16 154 39 168 31 4 -2 7
1 7 7 0 7 5 10 12 8 7 -3 28 1 47 8 28 9 37 18 39 40 3 23 1 26 -10 16 -10 -8
-18 -8 -25 -1 -7 7 -14 5 -23 -6z"/>
<path d="M5145 6590 c-3 -5 5 -25 19 -43 15 -19 26 -37 26 -41 0 -4 11 -22 24
-39 25 -33 106 -199 106 -217 0 -5 5 -10 11 -10 5 0 8 -4 5 -9 -3 -5 1 -14 9
-21 8 -7 15 -21 15 -31 0 -11 5 -19 10 -19 6 0 10 -6 10 -13 0 -8 13 -40 29
-73 84 -174 182 -526 184 -666 1 -43 6 -78 11 -78 5 0 3 -7 -4 -15 -6 -8 -9
-18 -6 -23 3 -6 9 -54 12 -108 4 -55 8 -108 9 -119 1 -11 3 -32 4 -47 0 -16 5
-28 10 -28 9 0 7 72 -3 88 -3 6 1 17 9 25 12 12 13 22 5 42 -5 14 -6 24 -1 21
9 -6 6 87 -4 103 -3 6 -3 11 1 11 3 0 0 8 -7 17 -8 9 -9 14 -2 10 12 -8 11 54
-2 193 -4 36 -8 76 -9 90 -2 14 -5 32 -9 40 -3 8 -6 22 -6 30 -2 55 -55 257
-72 274 -5 6 -9 22 -9 37 0 15 -4 31 -10 34 -5 3 -10 13 -10 22 0 15 -56 142
-81 183 -5 8 -18 33 -29 55 -11 22 -24 47 -29 55 -5 8 -15 28 -22 44 -8 16
-26 42 -40 57 -15 16 -24 31 -21 34 3 2 -5 14 -17 24 -13 11 -20 24 -17 30 4
5 -3 12 -14 16 -11 3 -20 12 -20 20 0 19 -57 58 -65 45z"/>
<path d="M2186 5565 c-8 -8 -21 -15 -28 -15 -26 -1 -62 -41 -64 -73 -1 -18 -3
-34 -4 -37 -1 -3 -3 -9 -4 -15 0 -5 -7 -20 -14 -32 -12 -21 0 -44 13 -23 3 5
12 10 18 10 7 0 2 -8 -9 -18 -12 -9 -25 -33 -28 -52 -16 -90 -15 -99 22 -155
20 -30 42 -55 49 -55 13 0 18 -18 14 -57 -1 -20 1 -21 28 -13 29 8 30 8 16
-13 -12 -19 -12 -33 3 -107 9 -47 16 -109 17 -137 0 -29 3 -53 8 -53 4 0 7 7
7 15 0 8 4 15 8 15 7 0 38 97 35 110 -1 3 -5 14 -9 24 -5 13 -4 17 4 12 6 -3
13 -3 16 2 2 4 -3 8 -13 9 -11 1 -24 -10 -32 -25 l-13 -27 -4 34 c-2 18 2 39
9 45 9 8 10 7 5 -8 -12 -34 57 26 78 68 23 47 12 59 -19 21 -13 -17 -24 -25
-25 -19 0 14 76 84 91 84 5 0 8 4 4 9 -3 5 -1 12 5 16 5 3 14 24 20 45 9 34
16 41 51 50 22 6 78 14 125 18 73 7 87 6 94 -8 5 -9 13 -104 19 -211 21 -367
63 -528 168 -640 56 -60 135 -98 273 -133 163 -40 243 -50 405 -51 l150 0 -20
-20 c-14 -14 -21 -16 -23 -7 -2 6 -7 12 -12 12 -5 0 -11 -6 -13 -12 -4 -10 -6
-10 -6 0 -1 18 -21 15 -21 -4 0 -13 -3 -14 -14 -5 -11 9 -15 7 -19 -10 -5 -17
-9 -19 -25 -10 -20 10 -42 -2 -42 -23 0 -6 5 -4 10 4 8 13 11 13 25 0 13 -14
12 -19 -12 -45 -16 -17 -21 -26 -11 -23 10 4 23 -1 33 -12 17 -19 17 -20 0
-27 -18 -6 -18 -7 1 -14 17 -7 17 -8 2 -8 -10 -1 -18 -5 -18 -10 0 -10 32 -8
65 4 16 5 17 5 5 -4 -13 -9 -13 -11 3 -11 9 0 17 -8 18 -17 0 -11 3 -13 6 -6
6 17 43 -2 43 -23 0 -19 51 -84 66 -84 11 0 29 -44 26 -65 -2 -12 49 -38 57
-29 3 3 -1 9 -9 14 -13 8 -12 10 2 10 32 0 31 -30 -2 -43 -8 -3 4 -3 26 0 25
3 44 1 48 -6 10 -15 26 -14 20 2 -3 9 6 13 32 12 24 0 39 -5 41 -15 4 -12 3
-13 -5 -1 -5 7 -15 10 -21 6 -9 -5 -9 -10 0 -21 8 -10 8 -14 0 -14 -6 0 -11 5
-11 10 0 6 -7 10 -16 10 -8 0 -12 -4 -9 -10 4 -6 -1 -7 -11 -3 -13 5 -16 3
-11 -10 10 -27 -17 -39 -40 -17 -25 22 -37 16 -21 -13 9 -17 8 -19 -6 -14 -20
8 -21 -9 -1 -21 13 -7 12 -10 -10 -20 -14 -6 -25 -16 -25 -22 0 -6 5 -8 12 -4
8 5 9 2 5 -10 -4 -10 -7 -22 -7 -28 0 -5 -7 -2 -16 6 -8 9 -22 16 -31 16 -13
0 -13 3 -3 15 9 11 9 15 1 15 -6 0 -17 -11 -23 -25 -12 -26 -23 -31 -33 -15
-10 17 -21 11 -21 -10 0 -12 5 -19 12 -16 7 3 18 -2 24 -10 12 -13 7 -18 -15
-15 -5 1 3 -10 19 -24 26 -23 31 -24 45 -11 12 13 12 17 0 33 -13 16 -12 17 3
5 26 -21 10 -96 -18 -85 -8 3 -14 0 -14 -6 0 -18 22 -13 46 10 22 21 23 21 17
1 -2 -11 1 -23 8 -28 9 -5 10 -2 6 10 -4 11 -3 15 4 11 5 -4 9 -18 7 -33 -2
-14 3 -27 10 -29 6 -3 12 2 12 11 0 9 5 16 10 16 6 0 10 -7 10 -17 0 -15 1
-15 19 1 16 15 19 15 24 1 4 -8 11 -15 18 -15 6 0 9 6 6 13 -5 15 12 32 34 33
11 1 17 -7 17 -23 0 -14 7 -32 17 -41 16 -16 17 -16 10 6 -3 12 -3 22 2 22 11
0 38 -42 35 -54 -2 -5 4 -4 12 3 9 7 13 18 9 24 -3 6 -1 7 5 3 6 -4 9 -14 6
-24 -5 -14 -2 -13 11 3 16 19 16 19 9 -9 -6 -27 -5 -29 18 -24 17 3 29 -1 37
-14 6 -10 17 -18 24 -18 8 0 7 4 -3 10 -13 8 -12 10 3 10 10 0 25 7 34 15 8 8
20 12 26 8 20 -12 41 -12 57 0 12 9 13 9 3 -3 -17 -19 -16 -30 1 -30 8 0 17 8
20 18 4 10 20 29 37 41 30 22 30 22 19 2 -6 -12 -17 -21 -25 -21 -8 0 -15 -6
-15 -13 0 -7 9 -13 19 -13 11 0 17 4 15 8 -14 22 38 4 52 -17 9 -14 19 -23 22
-21 2 3 -3 17 -12 32 -21 32 -18 37 14 21 20 -11 24 -19 22 -46 -4 -35 16 -60
30 -38 12 19 50 -23 45 -50 -6 -30 9 -40 16 -11 4 12 9 19 13 15 4 -4 15 0 25
9 16 14 18 14 29 -5 6 -12 21 -21 33 -21 17 0 19 -2 8 -9 -13 -8 -13 -12 0
-27 11 -14 11 -16 0 -10 -9 6 -12 5 -9 -5 3 -8 11 -13 17 -12 13 3 15 -13 2
-21 -14 -9 -41 4 -41 19 0 8 -4 17 -10 20 -6 3 -7 -1 -4 -9 4 -11 0 -16 -11
-16 -10 0 -13 5 -9 12 4 7 3 8 -5 4 -12 -8 -211 43 -211 54 0 4 -13 6 -30 5
-16 -1 -30 1 -30 5 0 13 -41 19 -65 10 -18 -7 -25 -4 -33 13 -6 12 -11 16 -11
9 -1 -7 -5 -11 -10 -8 -5 3 -12 -1 -15 -10 -5 -12 -1 -14 17 -9 21 6 21 5 4
-8 -14 -12 -25 -13 -55 -4 -20 6 -40 16 -44 22 -4 5 -8 6 -8 1 0 -5 -6 -4 -12
2 -18 14 -115 42 -122 35 -3 -4 -6 0 -6 9 0 20 -55 35 -123 33 -31 -1 -57 1
-57 5 0 3 -81 6 -179 5 -98 -2 -184 1 -190 4 -6 4 13 29 44 61 30 29 55 59 55
66 0 6 9 22 19 35 l19 24 -5 -29 c-3 -16 -2 -27 3 -24 47 21 64 33 64 45 0 7
5 13 11 13 6 0 8 9 4 20 -4 13 -1 22 9 26 9 3 16 11 16 16 0 6 -6 5 -15 -2
-11 -9 -15 -9 -15 -1 0 7 -5 9 -11 5 -8 -4 -7 -9 2 -16 11 -7 9 -8 -4 -4 -10
3 -20 6 -22 6 -2 0 -1 9 2 20 3 11 0 20 -6 20 -6 0 -11 -4 -11 -9 0 -5 -16
-12 -36 -16 -33 -6 -35 -7 -18 -20 18 -13 18 -14 -3 -8 -14 3 -23 1 -23 -6 0
-6 5 -11 11 -11 8 0 8 -4 0 -14 -6 -7 -9 -21 -5 -30 4 -10 0 -18 -12 -23 -9
-3 -26 -15 -36 -25 -10 -10 -23 -18 -29 -18 -6 0 3 11 19 25 17 14 35 25 41
25 6 0 11 5 11 11 0 5 -4 7 -10 4 -5 -3 -10 2 -10 12 0 15 -4 14 -20 -7 -11
-14 -20 -20 -20 -13 0 7 12 23 27 37 15 14 25 28 22 31 -9 8 -59 -35 -59 -51
0 -8 -6 -17 -14 -20 -8 -3 -17 -13 -21 -22 -5 -13 -2 -13 15 3 29 26 25 5 -6
-28 -14 -16 -32 -26 -39 -23 -7 2 -15 -4 -18 -14 -4 -17 -3 -18 17 -6 11 8 32
13 46 11 16 -1 33 7 47 24 23 26 38 25 27 -3 -3 -9 -12 -16 -20 -16 -7 0 -23
-13 -35 -30 -15 -20 -30 -29 -46 -28 -15 2 -19 6 -13 12 16 16 11 30 -5 16 -8
-7 -24 -10 -35 -7 -11 3 -17 1 -14 -4 9 -15 -23 -21 -45 -9 -28 14 -18 29 18
28 34 -1 51 8 51 28 0 12 17 18 41 16 3 -1 6 11 6 26 1 50 19 85 38 74 6 -3 7
-2 3 3 -4 4 -3 14 3 22 15 17 5 17 -31 -2 -30 -15 -65 -67 -53 -79 4 -3 1 -6
-5 -6 -7 0 -12 7 -12 15 0 20 -10 19 -26 -2 -14 -20 -31 -12 -18 9 5 7 10 22
12 33 2 15 -4 12 -28 -15 -25 -29 -30 -31 -25 -12 5 16 2 22 -9 22 -9 0 -13
-6 -10 -13 3 -8 -2 -14 -11 -14 -9 0 -14 6 -11 14 3 7 1 13 -3 13 -5 0 -11 -7
-14 -15 -4 -8 -23 -23 -44 -33 -41 -21 -92 -69 -60 -56 12 4 17 1 18 -12 0
-11 3 -14 6 -6 2 6 9 12 14 12 4 0 6 -6 3 -13 -7 -19 32 -19 48 0 12 15 11 15
-9 4 -28 -15 -30 1 -3 20 11 8 22 25 24 39 4 27 25 29 39 4 6 -11 13 -12 28
-4 13 7 19 7 19 0 0 -5 -5 -10 -11 -10 -5 0 -8 -4 -5 -9 4 -5 -8 -7 -26 -5
-21 3 -28 2 -20 -4 16 -11 5 -42 -17 -43 -11 0 -12 -2 -3 -6 17 -7 -4 -33 -27
-33 -14 0 -14 2 -1 10 13 8 12 10 -2 10 -10 0 -18 -6 -18 -13 0 -7 -8 -17 -19
-24 -10 -6 -29 -26 -41 -42 l-21 -31 21 0 c13 0 19 4 14 12 -5 7 -3 8 5 4 9
-6 8 -13 -5 -27 -9 -10 -12 -19 -6 -19 6 0 14 5 17 10 11 18 27 11 20 -9 -3
-11 -1 -22 5 -26 5 -3 10 1 10 10 0 17 46 39 61 29 5 -3 9 -3 9 1 0 3 -10 10
-22 16 l-23 10 23 -5 c29 -6 54 3 46 15 -13 21 62 3 86 -21 3 -3 37 -5 75 -6
50 -1 87 -8 132 -27 34 -14 65 -22 69 -19 3 4 3 -4 -1 -18 -7 -23 -7 -24 11
-10 26 20 34 32 28 42 -3 4 2 8 10 8 13 0 14 -5 6 -27 l-10 -28 21 25 22 25
-7 -30 c-7 -28 -6 -29 7 -11 16 22 47 30 46 13 0 -7 -4 -21 -9 -32 -8 -19 -9
-19 -9 -1 -1 11 -3 17 -6 14 -3 -3 -2 -19 1 -37 5 -26 9 -29 21 -20 8 7 11 19
8 26 -6 17 11 53 26 53 6 0 6 -7 -1 -19 -5 -11 -10 -28 -10 -38 0 -12 6 -8 21
16 18 30 23 33 52 26 18 -3 38 -8 45 -9 17 -3 43 -42 34 -51 -4 -5 -2 -5 5 -1
7 3 14 -2 18 -14 4 -12 11 -18 18 -14 8 5 8 2 0 -7 -16 -16 -17 -29 -3 -29 6
0 19 15 30 33 21 34 27 24 9 -17 -6 -13 -20 -27 -31 -29 -27 -7 -21 -52 7 -53
11 0 26 4 33 9 8 6 12 6 12 -2 0 -6 7 -11 15 -11 19 0 19 7 -1 27 -11 11 -12
19 -5 26 20 20 11 30 -10 11 -21 -19 -21 -19 -8 9 16 35 33 30 37 -11 3 -30 4
-30 22 -12 10 10 20 26 23 37 4 14 5 12 7 -7 l2 -25 7 25 c5 18 14 25 38 27
27 2 30 0 26 -18 -4 -14 -8 -17 -13 -9 -4 7 -13 9 -19 6 -15 -10 -14 -27 2
-24 8 2 12 -12 12 -47 0 -48 1 -50 27 -50 15 0 36 8 48 17 24 22 26 11 3 -22
l-17 -25 22 19 c16 14 22 15 22 6 0 -8 13 -2 33 16 17 16 26 22 20 14 -21 -23
-15 -28 21 -16 23 7 31 13 23 19 -7 4 5 5 26 1 24 -4 43 -2 52 6 8 7 22 10 30
6 9 -3 15 0 15 9 0 8 3 15 8 16 20 1 70 9 92 13 74 16 91 18 107 11 10 -5 24
-9 31 -11 15 -3 66 -52 68 -65 1 -5 2 -13 3 -19 1 -13 31 -13 31 1 0 5 -4 8
-9 4 -5 -3 -12 -1 -16 5 -3 5 0 10 7 10 10 0 9 3 -1 9 -13 8 -13 12 -1 26 13
16 14 16 20 0 3 -9 9 -16 13 -15 19 2 40 -35 42 -76 1 -25 6 -48 10 -52 4 -4
5 2 3 13 -2 12 2 19 10 17 10 -2 10 2 2 18 -11 20 3 30 15 10 3 -5 10 -10 15
-10 5 0 -13 23 -40 52 -54 57 -59 68 -32 68 15 1 15 2 1 13 -20 15 -39 91 -28
109 7 10 9 8 10 -7 1 -11 1 -28 1 -38 -1 -11 2 -15 9 -12 6 4 16 0 22 -9 7 -9
30 -19 52 -21 22 -3 33 -2 25 1 -23 10 -50 47 -49 69 0 17 3 16 22 -10 12 -16
30 -38 40 -47 9 -10 12 -18 6 -18 -5 0 -7 -4 -4 -10 3 -5 16 -10 28 -9 12 0
16 3 10 6 -7 2 -13 10 -13 17 0 7 -11 23 -25 36 -29 28 -25 42 5 15 27 -24 36
-13 15 19 -16 24 -16 26 0 33 15 5 16 8 4 17 -14 11 -39 51 -39 61 0 4 5 3 12
-1 6 -4 3 5 -8 19 -10 15 -23 27 -28 27 -5 0 -1 -9 9 -20 10 -11 13 -20 8 -20
-6 0 -14 -7 -17 -16 -3 -8 -2 -13 3 -10 4 3 18 -8 30 -24 25 -35 18 -40 -11
-7 -18 20 -19 20 -13 2 7 -23 8 -25 6 -43 0 -7 -6 -10 -11 -7 -6 4 -8 10 -5
15 7 11 -34 94 -42 86 -8 -8 -43 24 -43 39 0 7 -7 18 -15 25 -20 17 -9 33 15
20 31 -17 34 -11 6 11 -14 11 -30 18 -35 15 -14 -9 -63 12 -93 41 -14 14 -31
23 -36 19 -16 -10 -64 42 -57 63 3 11 -1 24 -11 32 -15 12 -16 11 -10 -9 5
-16 3 -22 -7 -22 -22 0 -36 22 -33 52 2 15 0 26 -3 23 -4 -2 -13 1 -21 6 -11
8 -6 9 18 6 17 -2 32 -1 32 3 0 11 -24 37 -45 48 -17 10 -17 11 -3 12 9 0 23
8 30 18 7 9 25 17 40 16 20 -1 29 5 34 20 4 12 15 29 25 39 29 27 23 36 -20
30 -49 -7 -60 10 -27 41 14 13 26 30 26 39 0 21 -38 47 -70 47 -30 0 -174 -81
-208 -117 -13 -13 -34 -28 -46 -32 -25 -10 -136 7 -136 20 0 5 -7 9 -15 9 -8
0 -15 -5 -15 -11 0 -5 -5 -7 -10 -4 -8 5 -8 11 0 20 8 10 3 15 -21 24 -17 6
-35 9 -39 6 -4 -2 -15 4 -25 15 -10 11 -24 20 -32 20 -7 0 -13 5 -13 11 0 6 9
9 20 6 11 -3 20 -1 20 4 0 5 5 9 11 9 5 0 8 -4 4 -9 -3 -5 -1 -12 5 -16 5 -3
10 -2 10 4 0 6 6 8 14 5 8 -3 12 -12 10 -19 -3 -7 0 -16 7 -21 7 -4 10 -3 6 3
-9 15 24 26 37 13 17 -17 36 -11 36 12 0 28 -53 110 -96 148 -54 47 -119 38
-185 -27 -66 -63 -134 -44 -159 45 -6 23 -6 41 1 53 10 20 -4 28 -16 9 -7 -12
-32 -3 -39 15 -3 9 0 12 10 8 8 -3 14 1 14 10 0 11 8 14 29 11 29 -5 51 18 30
31 -5 4 -7 11 -4 16 4 5 0 9 -7 9 -9 0 -9 3 -2 8 6 4 14 15 17 26 4 10 13 16
20 13 8 -3 20 -1 28 4 11 7 12 12 1 29 -11 18 -4 29 76 118 48 53 101 115 117
137 17 22 32 42 35 45 15 15 50 71 50 80 0 6 5 8 12 4 6 -4 8 -3 5 3 -12 20
46 152 85 194 33 36 56 46 98 44 19 -1 50 -3 68 -4 68 -2 108 -76 157 -286 40
-171 41 -176 68 -240 22 -52 44 -139 61 -249 3 -16 12 -36 19 -45 53 -60 74
-179 41 -231 -11 -18 -8 -16 10 5 14 17 26 24 26 18 0 -7 7 -13 15 -13 18 0
20 40 3 41 -7 0 -3 5 10 11 13 6 21 17 18 23 -2 7 1 18 7 25 9 10 8 12 -5 7
-23 -8 -23 -1 1 24 l19 21 21 -21 c12 -12 27 -19 33 -15 6 4 8 3 5 -3 -4 -6
-1 -13 6 -16 10 -4 13 2 9 19 -3 15 -10 23 -17 20 -9 -3 -12 4 -11 24 3 37
-10 70 -26 69 -10 0 -10 -2 0 -6 6 -2 10 -8 7 -13 -3 -5 -19 5 -35 21 -16 17
-35 27 -40 24 -6 -4 -19 3 -29 14 -10 12 -22 21 -27 22 -5 0 -20 14 -34 32
l-25 32 40 -32 c84 -67 218 -105 446 -125 230 -20 342 6 444 103 101 96 181
247 267 504 27 83 63 170 79 195 25 37 29 53 27 95 -3 42 -7 52 -29 62 -36 17
-335 99 -443 121 -80 17 -86 19 -56 25 27 6 31 10 21 20 -6 6 -17 12 -24 12
-7 0 -12 7 -12 15 0 22 -36 60 -56 60 -10 0 -21 4 -24 10 -4 6 1 7 11 3 11 -4
15 -2 11 4 -9 15 -68 23 -89 12 -14 -8 -44 -2 -98 18 -8 4 -18 5 -22 5 -5 -1
-8 2 -8 7 0 4 -11 6 -24 4 -14 -3 -42 1 -63 8 -47 16 -81 18 -110 8 -15 -6
-27 -4 -36 5 -14 14 -39 7 -38 -10 0 -5 -8 -9 -19 -9 -10 0 -29 -10 -42 -22
-13 -11 -34 -24 -48 -28 -23 -6 -23 -5 5 14 17 12 26 21 21 21 -5 0 -1 10 10
22 19 22 19 22 0 8 -11 -8 -32 -27 -49 -42 -16 -16 -33 -26 -37 -23 -4 3 -13
-2 -20 -10 -9 -11 -17 -12 -31 -4 -15 8 -25 5 -45 -10 -14 -11 -32 -17 -40
-14 -8 3 -14 -1 -14 -8 0 -8 -11 -2 -24 14 -20 23 -25 25 -30 11 -5 -12 -9
-14 -20 -5 -10 8 -16 8 -25 -2 -6 -8 -9 -16 -7 -18 2 -2 -18 -5 -45 -7 -40 -2
-49 1 -49 14 0 9 -8 23 -17 31 -16 13 -16 14 -1 10 26 -9 28 3 5 27 -15 14
-21 31 -19 51 l2 30 -15 -28 c-9 -15 -13 -32 -10 -37 3 -6 -5 -10 -19 -10 -14
0 -26 5 -26 11 0 5 -4 7 -10 4 -5 -3 -10 -1 -10 6 0 9 -3 9 -14 0 -11 -10 -17
-8 -25 6 -10 17 -10 17 -11 0 0 -15 -3 -16 -21 -6 -13 7 -19 7 -15 1 10 -17
-11 -23 -24 -7 -10 12 -10 15 1 16 8 0 2 5 -13 11 -16 5 -28 14 -28 19 0 5 -5
9 -11 9 -8 0 -8 -5 1 -15 9 -10 9 -15 1 -15 -6 0 -11 -7 -11 -15 0 -9 -6 -12
-15 -9 -15 6 -22 26 -7 22 4 -2 8 0 10 5 1 4 -1 8 -5 10 -4 1 -26 19 -48 39
-22 21 -55 41 -72 44 -18 3 -33 9 -33 13 0 4 -6 8 -12 9 -7 1 -29 3 -48 6 -19
3 -53 5 -75 6 l-40 2 33 8 c45 11 53 21 12 17 -18 -2 -39 -12 -45 -21 -11 -14
-16 -14 -44 -3 -17 7 -28 17 -24 21 5 5 -10 5 -32 1 -22 -4 -52 -9 -67 -10
-15 -2 -38 -9 -50 -15 -22 -11 -22 -10 -4 4 19 16 19 16 -4 16 -23 0 -23 0 -4
16 18 14 18 15 -6 8 -14 -3 -31 -12 -39 -18 -12 -9 -13 -8 -8 6 4 12 2 15 -9
11 -7 -3 -14 -10 -15 -17 0 -6 -4 -2 -9 9 -5 11 -9 14 -9 7 -1 -10 -6 -10 -22
-2 -15 8 -24 8 -33 1 -8 -6 -20 -9 -28 -6 -8 3 -21 -1 -28 -10 -7 -8 -21 -15
-31 -15 -10 0 -21 -5 -24 -10 -4 -6 -10 -8 -15 -5 -18 11 -519 18 -532 8 -7
-6 -35 -14 -61 -17 -72 -11 -148 -36 -142 -46 4 -6 1 -10 -5 -10 -6 0 -10 -8
-8 -17 2 -13 -5 -18 -32 -20 -19 -2 -39 -8 -44 -13 -6 -6 -23 -10 -38 -10 -33
0 -38 -20 -5 -21 14 -1 10 -4 -13 -9 -50 -11 -171 -17 -168 -8 2 4 32 25 68
46 74 45 93 82 43 82 -22 0 -25 2 -13 10 29 19 -33 11 -79 -10 -24 -11 -48
-20 -55 -20 -23 1 37 40 70 46 25 4 38 14 44 30 6 16 15 22 25 18 10 -4 15 0
15 10 0 14 -6 16 -37 10 -33 -6 -36 -5 -31 14 4 15 0 22 -16 27 -20 7 -20 7 4
14 17 5 21 9 13 14 -7 5 -29 4 -48 -2 -19 -5 -35 -6 -35 -1 0 10 46 40 62 40
7 0 18 11 25 25 13 29 11 31 -11 10z m1235 -271 c202 -28 454 -100 555 -159
69 -40 60 -46 -14 -9 -95 48 -264 100 -420 129 -133 25 -365 45 -432 38 -31
-3 -58 -5 -147 -11 -15 -1 -21 -7 -17 -16 3 -8 -2 -16 -13 -19 -16 -4 -15 -6
5 -12 18 -6 21 -10 10 -17 -9 -6 -6 -7 10 -3 12 3 22 2 22 -3 0 -6 9 -8 20 -5
11 3 20 1 20 -5 0 -5 7 -13 16 -16 9 -3 12 -2 8 5 -8 14 85 1 106 -15 13 -9
13 -9 2 6 -7 9 -9 18 -5 21 17 11 92 -1 114 -18 18 -13 19 -16 5 -11 -16 5
-17 4 -7 -8 7 -8 20 -15 29 -14 9 0 28 -4 42 -8 l25 -7 -25 22 -25 22 25 -6
25 -6 -24 20 c-35 31 -16 25 37 -11 25 -18 57 -31 69 -30 13 1 23 -3 23 -8 0
-6 4 -10 10 -10 5 0 7 7 4 15 -8 19 -63 47 -77 38 -5 -3 -7 -1 -3 5 3 6 -2 12
-11 15 -10 2 0 2 22 -1 41 -5 90 -34 77 -46 -3 -4 1 -4 10 -1 25 10 32 38 12
52 -26 19 -8 16 22 -4 19 -12 22 -18 12 -25 -10 -6 -10 -10 2 -18 13 -8 12
-10 -4 -10 -15 0 -17 -3 -9 -11 16 -16 5 -39 -19 -39 -17 0 -18 -2 -8 -15 19
-23 7 -28 -72 -27 -104 2 -122 5 -142 25 -22 22 -25 21 -19 -2 4 -15 -3 -20
-40 -25 -25 -4 -58 -4 -73 -1 -24 4 -25 4 -9 -4 18 -9 17 -10 -8 -10 -16 -1
-26 -5 -23 -10 9 -13 -34 -21 -55 -10 -11 5 -28 14 -39 19 -28 14 -33 13 -27
-11 5 -18 2 -20 -18 -15 -19 5 -22 3 -18 -14 3 -11 9 -20 14 -20 5 0 9 -5 9
-11 0 -8 -4 -8 -12 -1 -19 14 -79 21 -75 8 2 -6 13 -12 25 -14 11 -2 26 -9 32
-17 18 -22 -32 -49 -92 -49 l-49 0 53 -20 c33 -12 46 -21 35 -24 -23 -5 -12
-22 15 -22 13 0 18 -5 15 -14 -4 -10 -1 -13 9 -9 7 3 14 10 14 15 0 7 5 6 13
-1 8 -6 17 -8 20 -5 3 3 22 6 41 6 20 0 34 4 31 8 -6 9 53 22 66 14 5 -3 9 0
9 6 0 6 8 9 18 6 9 -3 37 -8 61 -11 24 -3 49 -13 56 -21 6 -9 18 -15 26 -13 7
1 31 -5 51 -13 31 -14 36 -20 31 -40 l-6 -23 25 23 c20 18 30 21 44 13 11 -5
27 -12 37 -15 10 -3 17 -12 14 -19 -4 -11 -9 -13 -51 -16 -12 -1 -16 -6 -12
-16 5 -13 -4 -15 -54 -13 -36 2 -62 8 -65 16 -2 6 -13 12 -23 12 -10 0 -27 7
-38 15 -10 8 -25 15 -32 15 -7 0 -22 8 -33 19 -15 13 -30 17 -59 14 -26 -3
-40 -1 -40 7 0 7 -11 9 -29 7 -38 -6 -53 -16 -45 -29 4 -6 -1 -8 -14 -4 -13 4
-22 1 -26 -9 -5 -13 2 -15 46 -11 34 3 61 0 80 -10 15 -8 28 -16 28 -18 0 -4
-49 6 -90 19 -17 5 -22 4 -15 -3 6 -6 80 -34 165 -62 143 -48 163 -52 265 -55
61 -2 116 -4 124 -4 7 -1 11 -7 7 -16 -4 -12 0 -14 22 -9 33 8 32 8 60 -1 19
-6 20 -10 10 -23 -11 -13 -10 -15 5 -9 45 17 68 19 83 6 13 -10 17 -10 24 1 7
12 13 11 31 -5 19 -17 21 -17 16 -3 -4 12 -2 15 9 11 7 -3 14 -1 14 3 0 5 11
10 25 10 14 1 25 1 25 0 0 -9 -64 -178 -78 -204 -18 -37 -67 -79 -122 -107
-58 -30 -180 -56 -230 -49 -25 4 -58 8 -75 9 -64 3 -155 18 -155 25 0 4 -12 7
-27 7 -68 1 -186 38 -253 78 -69 42 -102 76 -134 141 -46 92 -59 172 -59 359
0 190 14 268 61 344 39 63 124 119 198 131 72 11 253 4 395 -16z m1759 -265
c215 -24 353 -63 447 -127 72 -49 99 -101 108 -208 3 -38 8 -82 10 -99 4 -22
2 -26 -5 -15 -8 11 -10 8 -8 -15 1 -17 -2 -37 -7 -44 -6 -10 -4 -12 4 -6 10 6
11 3 3 -11 -5 -11 -13 -36 -16 -58 -9 -47 -69 -196 -101 -252 -54 -92 -102
-141 -172 -176 l-68 -33 -175 1 c-184 1 -276 14 -381 53 -111 42 -169 105
-218 236 -16 44 -38 148 -25 119 3 -7 14 -10 25 -7 10 3 26 -1 35 -8 20 -16
44 -21 44 -8 0 6 4 8 9 4 5 -3 22 -7 38 -10 44 -6 57 -10 72 -19 9 -6 17 -3
23 8 10 18 11 18 141 -16 42 -11 77 -25 77 -32 0 -6 9 -12 20 -13 11 -1 20 2
20 8 0 5 30 9 68 10 85 0 156 12 127 22 -11 3 -37 6 -57 5 -20 0 -56 4 -80 8
-58 10 -61 11 -80 12 -10 1 -18 9 -18 17 0 12 -8 14 -38 9 -28 -4 -43 -2 -55
10 -8 9 -20 16 -26 16 -6 0 -11 5 -11 10 0 6 6 10 13 10 9 0 8 3 -2 9 -11 7
-9 10 8 16 11 3 25 4 30 1 11 -7 23 22 15 36 -4 6 9 9 35 7 22 -2 46 2 53 9 8
8 15 9 25 1 9 -8 17 -8 27 0 10 8 16 9 21 1 3 -5 11 -10 16 -10 6 0 7 4 4 10
-3 6 1 7 9 4 9 -3 16 -1 16 5 0 6 5 11 11 11 5 0 7 -5 3 -11 -4 -7 0 -9 12 -6
71 19 71 19 93 -26 12 -24 21 -48 21 -54 0 -9 23 -21 52 -27 3 0 10 -4 14 -8
11 -11 44 -10 44 1 0 6 -4 13 -10 16 -26 16 -7 26 38 20 l47 -6 -33 21 c-26
18 -30 25 -21 36 9 11 8 14 -5 14 -9 0 -16 -4 -16 -10 0 -20 -16 -10 -17 11
-2 16 3 20 16 16 15 -3 17 0 13 17 -3 11 -15 28 -26 38 -12 10 -17 17 -13 18
9 0 -42 69 -80 107 -11 12 -43 32 -70 44 -26 12 -59 30 -73 39 -14 10 -41 20
-61 24 -37 6 -76 36 -49 36 9 0 7 7 -5 20 -10 11 -13 20 -7 20 7 0 12 -4 12
-10 0 -5 4 -10 9 -10 5 0 7 9 4 20 -3 11 -1 20 5 20 6 0 10 9 9 19 0 11 -6 19
-11 18 -6 -1 -10 5 -11 13 -1 18 51 49 80 49 12 -1 7 -5 -12 -10 -18 -5 -33
-14 -33 -20 0 -6 3 -8 8 -6 4 3 41 7 82 10 41 3 66 3 56 0 -15 -4 -16 -7 -5
-14 11 -7 10 -9 -5 -9 -13 0 -17 -3 -10 -10 7 -7 24 -4 53 7 37 14 44 15 51 2
8 -12 13 -12 31 -1 18 11 26 12 45 1 22 -11 22 -13 6 -26 -15 -12 -14 -13 9
-7 15 3 43 -2 64 -10 21 -9 41 -13 44 -10 3 4 0 9 -6 11 -7 3 -13 11 -13 18 0
14 -27 25 -130 49 -134 31 -530 60 -516 37 5 -7 -1 -11 -16 -11 -18 0 -20 2
-8 10 23 15 7 12 -27 -5 -24 -12 -36 -13 -55 -4 -17 7 -34 7 -59 0 -34 -10
-34 -10 9 -5 24 3 42 2 42 -4 0 -14 -59 -23 -80 -12 -25 13 -30 13 -30 -5 0
-8 -7 -15 -15 -15 -39 0 12 45 69 62 86 24 294 28 476 7z"/>
<path d="M1785 5068 c-28 -42 -37 -68 -57 -163 -8 -40 -7 -64 8 -125 9 -41 24
-88 31 -103 8 -16 15 -42 15 -58 1 -37 18 -38 18 -1 0 15 5 33 12 40 7 7 8 12
4 12 -5 0 -2 7 5 17 11 13 11 17 2 20 -19 7 -16 33 3 33 15 0 15 2 0 25 -24
36 -20 62 9 67 14 3 25 1 25 -3 0 -5 -7 -9 -15 -9 -16 0 -20 -15 -7 -24 19
-11 34 15 38 65 2 30 7 65 10 79 3 14 3 22 -1 19 -9 -10 -55 36 -55 55 0 9 4
16 8 16 4 0 8 18 7 40 0 54 -24 53 -60 -2z"/>
<path d="M2045 4706 c-37 -33 -47 -47 -39 -56 19 -19 4 -58 -27 -72 -16 -7
-29 -18 -29 -24 0 -7 -7 -15 -15 -18 -13 -5 -14 -10 -5 -27 18 -33 6 -51 -26
-39 -21 9 -29 7 -40 -7 -28 -36 9 -123 51 -123 22 0 24 2 13 19 -9 15 -9 23 1
35 8 9 19 16 25 16 6 0 26 16 45 35 22 22 42 35 55 33 14 -2 25 6 34 24 7 15
24 36 37 46 14 11 25 25 25 31 0 12 -50 171 -54 171 -1 0 -24 -20 -51 -44z"/>
<path d="M3733 2839 c-3 -10 -10 -19 -15 -19 -5 0 -6 5 -3 10 3 6 1 10 -4 10
-6 0 -11 -4 -11 -10 0 -5 -8 -10 -17 -10 -15 0 -16 -2 -3 -9 8 -6 18 -7 22 -5
4 3 5 -3 1 -13 -6 -15 -4 -16 8 -6 20 16 62 -29 45 -48 -8 -9 -8 -10 2 -5 21
12 13 -14 -13 -40 -14 -14 -25 -27 -25 -29 0 -11 42 3 51 16 12 19 11 2 -1
-22 -8 -13 -7 -19 0 -19 6 0 13 7 17 16 4 12 11 8 33 -17 22 -27 34 -33 64
-32 24 1 36 -3 36 -13 0 -19 37 -38 43 -21 4 9 6 8 6 -2 1 -11 4 -11 16 -1 12
10 15 10 15 0 0 -10 3 -10 16 0 13 11 16 10 21 -8 6 -25 23 -30 23 -8 0 8 5
18 12 22 7 5 9 2 6 -8 -5 -11 0 -14 18 -12 13 1 24 -2 24 -7 0 -6 5 -7 11 -3
8 4 9 -1 4 -17 -7 -21 -6 -22 9 -7 21 21 22 62 1 55 -8 -4 -17 -2 -20 4 -4 5
-11 7 -16 4 -5 -4 -9 0 -9 9 0 8 -3 23 -6 33 -3 10 3 6 12 -9 18 -27 34 -36
34 -20 0 4 -4 12 -9 18 -5 5 -7 21 -4 36 4 23 8 26 24 17 21 -11 25 1 7 19 -8
8 -9 15 -2 22 7 7 15 2 24 -15 7 -14 17 -25 22 -25 5 0 13 -10 18 -22 8 -22 9
-22 9 4 1 14 4 34 7 43 5 13 1 15 -20 11 -18 -3 -26 0 -26 10 0 12 -12 18 -32
16 -3 -1 -9 5 -12 13 -3 8 0 14 6 12 6 -1 13 4 16 12 2 8 0 11 -6 7 -6 -3 -14
-1 -18 5 -4 8 -11 4 -19 -11 l-12 -23 -12 21 c-13 24 -36 29 -45 10 -4 -7 -4
-3 -2 9 3 20 1 21 -25 16 -19 -3 -29 -1 -29 6 0 7 -4 10 -9 7 -5 -3 -31 -2
-57 3 -30 6 -55 6 -66 0 -14 -7 -18 -6 -18 5 0 9 -6 13 -14 10 -8 -3 -17 0
-21 6 -4 7 -13 4 -24 -9 -19 -22 -38 -17 -21 4 8 9 5 14 -11 18 -15 4 -23 0
-26 -14z"/>
<path d="M2389 2813 c-3 -22 5 -48 17 -58 8 -6 16 -28 18 -50 2 -24 7 -39 14
-37 15 3 16 -14 2 -23 -5 -3 -10 -1 -10 5 0 6 -4 8 -10 5 -11 -7 -15 14 -11
55 2 20 0 22 -10 13 -10 -10 -10 -21 0 -53 6 -22 16 -40 21 -40 4 0 14 -17 21
-37 11 -35 13 -36 22 -16 5 12 15 24 23 27 18 7 35 -16 24 -34 -8 -12 -10 -10
-10 8 0 14 -4 21 -11 16 -6 -3 -9 -19 -7 -35 4 -24 0 -29 -24 -34 -34 -8 -44
-20 -17 -22 10 -1 19 3 19 8 0 6 7 3 16 -5 14 -15 18 -14 36 9 10 14 16 29 13
35 -3 5 -2 10 3 10 6 0 13 -11 16 -25 9 -36 8 -40 -11 -40 -10 0 -19 -8 -21
-19 -3 -11 0 -16 7 -12 6 4 11 3 11 -3 0 -5 -4 -13 -10 -16 -5 -3 -10 -11 -10
-17 0 -15 31 12 40 37 7 16 9 17 9 3 1 -9 -3 -20 -9 -23 -5 -3 -10 -16 -9 -28
0 -15 2 -17 6 -7 9 23 30 40 38 32 5 -4 5 2 0 13 -4 11 -9 29 -11 40 -4 18 -3
18 5 -1 5 -12 14 -25 20 -29 14 -8 14 -48 1 -61 -8 -8 -6 -15 5 -24 10 -8 15
-9 15 -2 0 6 7 9 15 6 8 -4 15 -1 15 5 0 6 7 11 15 11 18 0 19 12 3 28 -9 9
-9 12 -1 12 22 0 42 -41 33 -65 -6 -16 -4 -26 8 -37 9 -8 22 -24 28 -34 7 -10
14 -16 18 -13 3 3 -3 18 -15 33 -20 26 -20 28 -4 46 27 30 37 24 31 -17 -4
-21 -2 -44 3 -52 6 -9 5 -20 -1 -30 -11 -18 5 -71 21 -71 5 0 25 18 44 40 36
43 47 49 47 25 0 -9 6 -12 18 -9 14 5 15 4 2 -5 -8 -6 -22 -8 -31 -6 -9 3 -22
-2 -30 -12 -12 -15 -12 -16 3 -10 13 4 15 2 11 -11 -6 -16 -5 -16 14 1 23 20
38 23 26 5 -4 -7 -7 -22 -6 -33 1 -16 1 -16 -3 -2 -6 20 -24 23 -24 5 0 -9 -4
-8 -11 2 -7 11 -12 12 -15 3 -3 -7 -12 -9 -20 -6 -9 3 -14 -2 -14 -16 0 -22
14 -28 25 -11 10 16 35 12 29 -5 -4 -8 -11 -12 -17 -8 -6 4 -8 0 -4 -10 4 -10
-1 -21 -11 -27 -16 -11 -16 -11 1 -6 9 3 17 1 17 -4 0 -23 18 -7 24 20 6 32
30 40 40 14 4 -11 -1 -18 -15 -21 -17 -5 -20 -11 -15 -34 5 -29 -8 -41 -17
-16 -3 6 -6 2 -6 -11 -1 -23 6 -23 37 1 9 7 9 13 1 24 -15 17 -3 31 13 15 7
-7 16 -12 22 -12 5 0 7 3 3 6 -7 8 12 28 36 37 18 7 21 -1 11 -27 -3 -9 -9
-14 -14 -11 -4 2 -5 -7 -2 -20 2 -14 0 -25 -7 -25 -6 0 -8 7 -4 17 4 11 3 14
-5 9 -7 -4 -12 -15 -12 -24 -1 -9 -7 -28 -14 -41 -12 -22 -12 -29 2 -50 18
-29 37 -43 68 -52 25 -8 49 4 40 19 -10 16 11 24 44 17 16 -4 32 -15 35 -26 4
-10 15 -19 26 -19 12 0 17 -4 14 -11 -4 -6 -14 -8 -22 -5 -17 7 -63 -3 -63
-13 0 -7 100 -12 119 -5 11 3 10 8 -5 19 -17 13 -17 14 -2 15 9 0 20 -4 23
-10 3 -5 21 -10 38 -9 18 0 25 3 17 6 -34 11 -100 47 -95 51 3 3 22 0 44 -8
28 -9 43 -9 59 -1 15 8 28 7 51 -2 34 -14 31 -27 -6 -27 -12 0 -23 -4 -23 -10
0 -5 11 -10 23 -10 23 0 48 16 90 57 10 10 18 14 17 8 -1 -5 -2 -20 -1 -32 1
-27 44 -42 66 -23 11 10 18 9 30 -4 18 -18 29 -21 20 -6 -3 6 -1 10 5 10 6 0
13 -7 17 -16 4 -11 13 -13 34 -9 21 5 31 2 35 -8 3 -9 12 -18 20 -21 8 -3 13
-2 10 3 -3 5 6 12 21 16 19 4 31 2 38 -9 9 -12 14 -13 23 -4 9 9 12 9 12 -1 0
-11 3 -11 16 0 13 11 15 9 10 -17 -4 -16 -3 -23 0 -16 3 6 19 12 35 12 17 0
28 -4 24 -10 -3 -6 1 -7 9 -4 9 3 16 14 16 23 1 9 7 1 15 -16 16 -38 28 -43
23 -10 -3 19 2 22 34 24 25 0 36 -3 31 -10 -4 -6 2 -8 15 -5 12 3 23 1 25 -6
3 -7 11 -3 20 9 15 19 15 19 36 1 16 -15 18 -21 9 -28 -10 -6 -10 -8 0 -8 6 0
12 -7 12 -15 0 -8 4 -15 9 -15 5 0 9 11 9 24 0 13 9 33 21 45 21 21 56 89 52
104 -1 5 3 6 9 2 14 -9 13 -32 -2 -38 -10 -4 -10 -6 -1 -6 10 -1 10 -7 2 -25
-7 -14 -17 -22 -24 -20 -7 3 -15 -2 -18 -10 -7 -18 6 -20 33 -6 16 8 18 8 14
-5 -4 -8 -17 -15 -31 -15 -18 0 -24 -4 -19 -15 3 -8 -1 -18 -8 -22 -12 -8 -36
-45 -36 -57 0 -16 17 -3 33 25 14 26 20 29 32 19 8 -7 22 -10 30 -6 11 4 14 2
9 -6 -5 -8 -2 -9 11 -4 15 5 16 4 5 -9 -23 -28 -1 -29 28 -2 l27 26 1 -35 c1
-30 0 -32 -11 -17 -11 15 -15 15 -29 4 -23 -19 -20 -30 7 -25 l22 5 -22 -12
c-13 -7 -23 -16 -23 -21 0 -12 18 -10 26 3 4 7 9 7 13 2 3 -5 19 6 35 24 18
22 22 31 11 27 -14 -6 -16 -1 -14 22 1 16 -2 37 -6 47 -4 10 -5 21 -1 24 3 4
6 -2 6 -11 0 -14 5 -16 18 -10 9 4 32 7 50 6 22 -2 32 2 32 13 0 17 11 20 26
6 12 -13 48 14 41 31 -5 14 53 128 65 128 4 0 -1 -16 -12 -35 -23 -40 -24 -45
-11 -45 5 0 12 9 16 19 3 10 14 21 25 24 16 4 19 11 14 35 -7 34 8 49 26 27
18 -22 29 -19 40 11 6 14 14 23 19 20 5 -3 12 6 15 20 5 18 12 24 22 20 9 -4
18 3 24 17 5 12 9 18 9 14 1 -4 18 5 38 20 20 15 39 28 42 28 3 0 5 8 4 18 -2
9 0 17 4 17 3 0 12 -8 19 -17 12 -17 13 -16 14 7 1 31 25 64 39 55 6 -3 11 1
11 10 0 12 -5 15 -16 11 -11 -4 -14 -1 -12 12 2 9 9 16 16 15 6 -2 20 9 29 25
10 15 26 33 35 40 10 7 18 23 18 36 0 15 6 23 17 23 20 0 45 -22 36 -31 -4 -3
2 -6 11 -6 13 0 16 5 11 18 -4 9 -8 32 -9 50 -1 29 0 31 11 16 7 -10 13 -21
13 -26 0 -4 5 -8 10 -8 6 0 9 3 8 8 -2 4 14 28 35 53 20 25 37 49 37 53 0 4 9
15 21 25 16 12 19 23 14 44 -8 29 -25 27 -25 -3 0 -10 -5 -22 -12 -26 -7 -4
-8 -3 -4 4 4 7 2 12 -3 12 -6 0 -11 -13 -11 -29 0 -29 -14 -42 -38 -34 -6 3
-10 9 -7 13 3 5 11 7 18 4 14 -5 16 27 4 58 -4 10 -10 26 -13 35 -4 11 -8 13
-11 6 -2 -6 3 -25 12 -42 8 -17 12 -31 8 -31 -19 1 -32 18 -39 55 -6 32 -9 36
-15 20 -11 -28 -11 -37 1 -30 6 3 10 -4 10 -17 0 -17 -3 -19 -9 -9 -10 15 -31
7 -31 -12 0 -7 4 -6 10 3 8 13 10 12 11 -5 1 -11 2 -24 4 -30 1 -5 3 -16 3
-24 1 -8 8 -11 18 -7 11 4 15 2 11 -8 -4 -10 -1 -13 9 -9 21 8 17 -10 -5 -24
-17 -10 -21 -8 -34 19 -13 28 -16 29 -25 12 -10 -17 -11 -18 -17 -2 -4 9 -4
21 -1 26 3 5 -1 9 -9 9 -8 0 -12 -4 -9 -9 3 -4 1 -8 -5 -8 -5 0 -12 6 -14 13
-3 6 -6 -3 -6 -20 -1 -18 4 -33 9 -33 6 0 10 5 10 11 0 5 5 7 11 3 8 -5 6 -10
-5 -16 -9 -5 -16 -19 -16 -31 -1 -20 -2 -20 -11 -4 -5 9 -8 21 -5 25 2 4 1 14
-5 22 -7 12 -9 12 -9 -4 0 -12 -5 -16 -16 -12 -8 3 -12 2 -9 -4 3 -6 1 -10 -5
-10 -7 0 -10 -6 -7 -14 4 -10 0 -12 -15 -8 -19 4 -20 2 -14 -22 6 -24 4 -27
-14 -21 -12 4 -20 2 -20 -5 0 -6 -6 -8 -12 -4 -10 6 -10 4 0 -7 19 -20 14 -31
-8 -19 -21 11 -25 3 -22 -45 2 -18 0 -18 -11 -4 -13 17 -54 31 -60 20 -2 -3
-2 0 -1 7 2 6 -1 12 -6 12 -6 0 -10 7 -10 15 0 18 -20 20 -20 3 -1 -7 -10 -2
-20 11 -11 13 -20 18 -20 12 0 -6 10 -21 22 -33 15 -15 21 -32 19 -53 -2 -25
2 -31 18 -31 19 0 19 2 4 18 -14 16 -14 18 -1 18 15 0 28 -20 28 -41 0 -5 -7
-9 -15 -9 -8 0 -15 -9 -15 -20 0 -11 -4 -20 -9 -20 -12 0 -21 36 -21 83 0 32
-5 41 -33 57 -22 13 -43 40 -61 75 -15 30 -29 55 -32 55 -3 0 -2 -4 1 -10 3
-5 1 -10 -5 -10 -6 0 5 -21 25 -47 20 -26 33 -53 31 -60 -3 -7 -1 -13 5 -13 5
0 21 -12 34 -26 18 -20 22 -30 15 -39 -8 -9 -5 -23 10 -49 24 -44 24 -47 5
-40 -9 4 -15 1 -15 -7 0 -8 -11 5 -25 29 -25 43 -24 72 1 72 8 0 14 5 14 10 0
11 0 11 -52 14 -20 1 -51 12 -68 24 -36 27 -40 20 -6 -11 13 -12 27 -32 31
-44 5 -18 2 -21 -17 -16 -20 4 -21 3 -6 -7 13 -8 24 -8 37 0 24 12 34 13 26 1
-3 -5 6 -22 20 -37 14 -15 23 -30 19 -33 -3 -3 -14 5 -25 19 l-21 25 5 -29 c4
-22 0 -30 -14 -33 -15 -4 -17 -9 -8 -25 7 -13 7 -23 0 -32 -6 -7 -7 -17 -3
-22 4 -4 -1 -2 -11 6 -12 8 -17 22 -14 36 2 15 0 21 -8 17 -18 -6 -7 -43 23
-75 33 -36 17 -36 -20 -1 l-29 28 16 -38 c14 -35 14 -39 -1 -54 -16 -16 -16
-16 -10 5 4 13 3 22 -3 22 -15 0 -23 -37 -16 -70 8 -36 -2 -40 -15 -5 -11 29
-26 33 -34 8 -4 -14 -4 -14 -3 2 1 11 -2 25 -5 31 -9 13 -14 102 -6 109 3 3
13 -12 22 -35 9 -22 20 -40 26 -40 15 0 12 16 -5 30 -8 7 -12 16 -9 21 3 5 -4
19 -15 31 -12 12 -21 29 -21 37 0 9 -7 3 -15 -13 -8 -15 -12 -32 -9 -37 3 -6
7 -36 8 -68 2 -32 6 -63 11 -70 6 -10 2 -11 -15 -6 -14 5 -20 3 -16 -3 8 -13
-3 -44 -14 -37 -10 6 0 52 15 65 14 12 5 94 -13 112 -9 9 -11 2 -8 -28 2 -21
7 -46 11 -55 4 -11 -2 -25 -17 -39 -16 -15 -19 -24 -11 -27 10 -3 10 -10 2
-25 -6 -11 -7 -23 -3 -27 5 -3 15 -16 21 -28 11 -20 11 -21 -5 -16 -27 11 -41
35 -31 55 12 23 11 31 -3 22 -7 -4 -23 -9 -36 -10 -17 -2 -22 1 -18 12 17 41
17 47 1 25 -16 -21 -19 -22 -27 -6 -6 9 -7 19 -4 22 3 4 6 1 6 -6 0 -7 5 -9
10 -6 6 3 10 11 10 16 0 6 -4 7 -10 4 -5 -3 -10 0 -10 7 -1 7 -8 1 -16 -14
-19 -36 -27 -35 -19 2 5 25 4 29 -9 24 -9 -3 -13 -10 -10 -16 9 -14 -26 -49
-63 -65 -19 -7 -33 -21 -34 -31 0 -14 -2 -14 -8 3 -6 14 -3 24 8 32 10 8 12
12 4 13 -15 0 -17 36 -3 45 6 3 14 -4 19 -17 l8 -23 7 23 c4 12 11 22 16 22
10 0 8 -19 -3 -37 -5 -7 -4 -13 2 -13 24 0 23 106 -1 153 -7 13 -5 24 5 35 7
9 19 32 27 50 14 35 19 38 40 20 12 -11 12 -10 1 4 -7 10 -10 26 -6 39 5 14 4
19 -4 15 -6 -4 -11 -14 -11 -22 0 -8 -7 -17 -15 -20 -8 -4 -15 -12 -15 -20 0
-8 -5 -14 -11 -14 -5 0 -8 4 -4 9 3 5 0 13 -6 16 -7 5 -10 -4 -8 -29 2 -19 -2
-41 -8 -47 -9 -9 -8 -19 3 -41 13 -25 13 -30 -1 -44 -8 -8 -15 -23 -15 -31 0
-12 -5 -10 -20 7 l-20 23 -24 -22 -24 -22 3 33 c4 44 5 46 15 23 5 -15 7 -9 6
22 -1 30 -4 39 -13 31 -6 -5 -9 -16 -6 -24 3 -8 1 -14 -5 -14 -14 0 -22 -39
-13 -64 5 -11 4 -30 -1 -41 -8 -18 -8 -18 -4 3 2 12 1 22 -4 22 -4 0 -11 10
-14 23 l-6 22 -14 -24 -13 -23 -6 23 c-8 30 -20 18 -39 -36 -12 -37 -16 -40
-50 -40 -40 -1 -40 6 4 43 15 13 28 28 28 32 0 5 11 26 25 46 15 22 25 30 25
20 0 -9 5 -16 10 -16 10 0 15 32 12 80 -1 24 0 24 10 5 12 -19 12 -19 19 5 11
38 10 70 -1 70 -5 0 -10 -10 -11 -22 0 -13 -3 -17 -6 -10 -8 21 -32 -18 -33
-52 0 -25 -2 -27 -16 -15 -15 12 -16 11 -9 -10 5 -16 4 -21 -4 -17 -16 10 -14
51 4 66 8 7 15 17 15 22 0 5 -19 -14 -42 -43 -28 -35 -43 -48 -46 -39 -3 8
-11 23 -19 32 -8 9 -12 21 -9 27 4 5 2 12 -4 16 -5 3 -10 -3 -10 -14 0 -12 -4
-21 -10 -21 -5 0 -7 13 -3 32 5 24 3 29 -7 23 -10 -6 -12 -4 -6 11 6 15 5 16
-5 7 -10 -10 -9 -15 1 -28 10 -12 10 -15 -3 -15 -10 0 -20 -15 -27 -40 -6 -22
-15 -38 -20 -35 -5 3 -14 -4 -20 -15 -6 -12 -7 -20 -1 -20 5 0 12 6 14 13 4 8
6 7 6 -3 1 -9 -8 -23 -19 -33 -11 -9 -20 -26 -20 -37 0 -11 -4 -20 -10 -20 -5
0 -10 12 -10 26 0 30 -17 23 -31 -13 -5 -13 -13 -21 -19 -18 -19 12 -6 109 14
105 20 -4 58 101 45 121 -6 10 -9 11 -9 2 0 -37 -18 -66 -35 -59 -11 4 -16 -8
-21 -44 -7 -52 -18 -64 -29 -30 -3 11 -11 20 -16 20 -5 0 -9 9 -9 19 0 11 -4
23 -10 26 -5 3 -10 -1 -10 -9 0 -9 -4 -16 -10 -16 -14 0 -50 42 -44 52 3 4 0
8 -5 8 -15 0 -14 -12 5 -38 11 -15 12 -27 5 -39 -8 -16 -10 -14 -16 10 -9 34
-29 36 -22 1 3 -16 0 -28 -9 -31 -8 -3 -14 -10 -14 -15 0 -6 6 -5 15 2 8 7 15
8 15 2 0 -13 -25 -33 -32 -26 -3 3 -15 -7 -27 -22 -11 -15 -21 -23 -21 -19 0
5 7 17 17 27 9 10 13 21 8 26 -4 4 -10 1 -12 -5 -3 -7 -14 -13 -26 -12 -12 0
-16 3 -9 6 7 3 18 17 24 32 9 22 12 23 15 8 4 -17 6 -17 23 -2 10 9 16 23 13
31 -3 8 2 25 10 38 9 13 13 33 10 45 -3 12 -1 21 6 21 6 0 11 5 11 12 0 6 6
19 14 27 8 9 17 30 21 48 5 25 2 34 -13 42 -16 9 -23 6 -34 -12 -28 -43 -29
-52 -4 -24 25 27 46 35 46 18 0 -5 -15 -31 -33 -57 -19 -27 -37 -56 -40 -64
-4 -8 -6 0 -4 18 3 31 -14 45 -28 22 -3 -5 -1 -10 6 -10 7 0 5 -8 -6 -20 -18
-20 -18 -21 1 -14 12 3 15 3 7 -3 -14 -10 -36 -63 -26 -63 4 0 17 12 29 28 12
15 25 24 28 21 9 -9 -4 -40 -14 -34 -10 6 -60 -56 -60 -73 0 -6 -4 -13 -9 -17
-13 -7 -5 35 9 49 13 13 13 26 0 26 -6 0 -16 -12 -22 -27 -11 -27 -12 -27 -16
-5 -3 18 -8 21 -24 16 -14 -4 -18 -2 -14 5 4 6 0 14 -8 17 -23 9 -8 26 16 18
15 -4 19 -2 16 7 -3 8 -14 14 -26 13 -13 0 -18 4 -15 13 3 7 10 13 17 12 6 -1
23 1 37 5 14 4 33 8 42 10 9 1 20 6 24 11 4 4 2 5 -5 0 -11 -6 -12 -3 -3 13 6
11 11 38 12 59 0 21 3 32 6 26 5 -14 33 -18 33 -5 0 4 -5 13 -12 20 -9 9 -6
18 13 39 21 25 22 26 1 9 -12 -11 -25 -16 -28 -13 -10 10 5 39 16 32 6 -3 7 1
4 10 -9 22 -34 0 -34 -30 0 -22 -32 -60 -42 -50 -3 3 -11 -1 -18 -10 -15 -19
1 -21 33 -4 21 12 21 12 3 -16 -11 -17 -13 -24 -5 -19 8 4 -5 -11 -29 -34 -45
-45 -65 -53 -56 -24 3 9 -1 6 -9 -7 -8 -14 -22 -26 -31 -27 -22 -3 -20 13 3
19 11 3 21 17 25 40 5 24 11 34 24 33 10 0 17 6 17 16 0 10 8 27 18 39 10 11
16 23 13 26 -3 3 -17 -9 -32 -26 -34 -41 -41 -34 -13 13 30 51 17 45 -26 -14
-25 -35 -41 -47 -52 -43 -9 4 -14 2 -10 -3 3 -6 1 -16 -4 -24 -6 -11 -8 -5 -4
18 6 34 -2 40 -25 20 -8 -7 -4 -1 9 14 23 26 21 55 -2 41 -7 -4 -6 0 2 10 7 9
19 17 25 17 7 0 21 7 32 16 18 14 18 15 -6 8 l-25 -6 25 26 c13 15 30 24 38
21 7 -2 10 -1 7 4 -3 5 0 13 6 17 6 3 14 2 18 -4 4 -7 15 -4 31 8 18 14 20 20
10 20 -9 0 -20 -4 -26 -10 -12 -12 -39 4 -30 19 4 6 13 8 19 5 8 -5 8 -3 0 6
-11 12 -16 11 -31 -6 -10 -11 -17 -25 -14 -32 2 -6 -1 -12 -7 -12 -6 0 -11 9
-11 19 0 16 -5 18 -32 14 -18 -3 -36 -10 -39 -15 -4 -6 -16 -7 -28 -3 -12 4
-21 2 -21 -4 0 -6 -4 -11 -10 -11 -5 0 -10 4 -10 9 0 5 25 17 55 26 30 10 55
22 55 27 0 6 -7 7 -16 4 -12 -5 -15 -2 -9 11 5 14 1 12 -15 -4 -11 -13 -26
-23 -33 -22 -9 0 -9 2 1 6 6 2 12 9 12 14 0 6 -7 6 -17 1 -10 -5 -31 -12 -47
-16 -26 -6 -28 -5 -17 8 8 9 20 16 28 16 19 0 73 32 73 43 0 4 -10 2 -22 -5
-69 -38 -135 -39 -121 -1 6 17 5 16 -15 -1 -12 -11 -22 -15 -22 -11 0 4 -9 0
-20 -10 -11 -10 -20 -13 -20 -7 0 6 -7 9 -15 6 -18 -7 -20 -34 -2 -34 26 -1
-30 -24 -60 -25 -40 -2 -43 11 -5 28 15 6 42 22 61 34 l34 23 -31 0 c-17 0
-37 -3 -46 -6 -22 -8 -20 -25 2 -18 16 5 16 5 -1 -6 -27 -17 -39 -8 -22 18 9
12 27 22 41 22 13 0 24 5 24 11 0 8 5 8 15 -1 9 -7 22 -9 32 -5 10 5 21 7 26
7 14 -4 6 13 -18 33 -21 17 -22 20 -7 33 15 11 14 12 -8 6 -41 -10 -73 -28
-78 -43 -3 -8 0 -11 6 -7 6 3 13 2 16 -3 3 -5 -6 -12 -22 -16 -32 -8 -54 -24
-47 -36 3 -4 -3 -13 -14 -18 -14 -8 -21 -8 -24 2 -3 7 -6 5 -6 -5 -1 -23 18
-71 32 -80 8 -5 5 -13 -11 -28 -17 -16 -22 -17 -22 -6 0 8 5 18 10 21 8 5 7
11 -1 21 -16 20 -27 17 -32 -8 l-4 -23 -2 23 c-1 21 -21 33 -21 11 0 -5 -5 -7
-10 -4 -8 5 -7 12 2 22 7 9 12 26 11 37 -1 14 0 15 3 4 8 -28 32 -30 26 -2 -5
26 14 57 30 48 5 -3 16 0 24 7 14 12 14 14 -3 20 -14 6 -13 8 10 8 15 1 27 5
27 11 0 5 -6 7 -13 4 -8 -3 -20 2 -27 11 -11 13 -8 15 16 16 17 1 22 3 11 6
-9 2 -15 8 -12 13 3 5 12 7 20 3 10 -3 15 1 15 15 0 12 5 24 10 27 6 3 10 -1
10 -9 0 -9 5 -16 12 -16 6 0 3 -7 -8 -15 -22 -17 -12 -20 17 -4 20 10 20 11 2
24 -10 8 -14 15 -10 15 4 0 2 6 -5 14 -17 18 -38 9 -38 -15 0 -10 -7 -19 -15
-19 -9 0 -12 6 -8 17 5 14 1 13 -24 -5 -33 -24 -55 -30 -35 -10 14 14 16 28 4
28 -4 0 -13 -13 -19 -30 -13 -35 -12 -35 27 -15 17 9 30 11 30 5 0 -5 -5 -10
-11 -10 -6 0 -9 -9 -6 -19 2 -10 1 -24 -3 -31 -10 -16 -30 -4 -30 18 0 12 -3
13 -12 4 -8 -8 -8 -15 2 -27 11 -13 11 -19 -3 -33 -16 -15 -17 -14 -17 21 0
23 -4 36 -10 32 -5 -3 -10 -2 -10 4 0 5 6 11 13 14 6 2 10 7 7 10 -3 3 -13 -1
-24 -8 -17 -13 -18 -16 -3 -53 11 -28 13 -48 7 -68 l-8 -29 -1 36 c-1 35 -20
89 -32 89 -11 0 -17 -124 -7 -143 5 -10 5 -24 0 -34 -9 -14 -10 -14 -17 6 -3
11 -11 19 -16 16 -11 -7 -32 43 -23 56 4 6 11 6 19 -1 10 -8 14 -4 17 20 5 34
1 37 -18 13 -11 -15 -15 -16 -26 -4 -8 9 -9 11 -1 7 7 -4 18 5 28 23 21 42 18
61 -5 31 -11 -14 -20 -20 -20 -13 0 6 12 24 28 40 15 15 34 37 42 47 14 18 14
19 -7 7 -13 -6 -23 -16 -23 -21 0 -6 -5 -10 -11 -10 -15 0 -39 -26 -39 -42 0
-7 -5 -20 -10 -28 -9 -13 -11 -13 -20 0 -13 20 -13 33 0 25 6 -3 13 2 16 12 3
10 12 32 20 50 16 36 17 43 6 43 -5 0 -15 -11 -22 -25 -7 -13 -16 -22 -21 -20
-4 3 -9 -1 -12 -7 -3 -9 -11 -5 -26 12 -17 21 -20 22 -14 5 6 -18 5 -19 -13
-5 -18 14 -18 14 -5 -2 7 -10 17 -15 22 -12 12 7 11 -7 -1 -26 -9 -13 -11 -13
-20 0 -17 25 -23 62 -12 69 11 7 -17 81 -30 81 -11 0 -10 -18 3 -41 6 -11 8
-25 6 -32 -2 -7 -12 6 -21 28 -11 25 -13 41 -6 43 18 6 11 32 -10 32 -11 0
-21 -3 -21 -7z"/>
</g>
</svg>
