<?xml version="1.0" encoding="UTF-8" standalone="no"?>
<!-- Created with Inkscape (http://www.inkscape.org/) -->

<svg
   xmlns:dc="http://purl.org/dc/elements/1.1/"
   xmlns:cc="http://creativecommons.org/ns#"
   xmlns:rdf="http://www.w3.org/1999/02/22-rdf-syntax-ns#"
   xmlns:svg="http://www.w3.org/2000/svg"
   xmlns="http://www.w3.org/2000/svg"
   xmlns:sodipodi="http://sodipodi.sourceforge.net/DTD/sodipodi-0.dtd"
   xmlns:inkscape="http://www.inkscape.org/namespaces/inkscape"
   width="547.65002"
   height="98.190002"
   id="svg9402"
   version="1.1"
   inkscape:version="0.48.1 "
   sodipodi:docname="Neues Dokument 8">
  <defs
     id="defs9404" />
  <sodipodi:namedview
     id="base"
     pagecolor="#ffffff"
     bordercolor="#666666"
     borderopacity="1.0"
     inkscape:pageopacity="0.0"
     inkscape:pageshadow="2"
     inkscape:zoom="1.6384016"
     inkscape:cx="273.82501"
     inkscape:cy="49.095002"
     inkscape:document-units="px"
     inkscape:current-layer="layer1"
     showgrid="false"
     fit-margin-top="0"
     fit-margin-left="0"
     fit-margin-right="0"
     fit-margin-bottom="0"
     inkscape:window-width="1024"
     inkscape:window-height="708"
     inkscape:window-x="-4"
     inkscape:window-y="-4"
     inkscape:window-maximized="1" />
  <metadata
     id="metadata9407">
    <rdf:RDF>
      <cc:Work
         rdf:about="">
        <dc:format>image/svg+xml</dc:format>
        <dc:type
           rdf:resource="http://purl.org/dc/dcmitype/StillImage" />
        <dc:title></dc:title>
      </cc:Work>
    </rdf:RDF>
  </metadata>
  <g
     inkscape:label="Ebene 1"
     inkscape:groupmode="layer"
     id="layer1"
     transform="translate(-123.6618,-594.34125)">
    <path
       inkscape:connector-curvature="0"
       d="m 300.10494,606.62375 c 19.05625,0 19.85875,16.3875 19.85875,16.3875 0,17.19125 -14.6575,17.05625 -14.6575,17.05625 21.18625,0 20.6525,19.98 20.6525,19.98 0,23.3225 -28.11375,22.24625 -28.11375,22.24625 0,0 -54.96125,0 -50.8275,0 4.125,0 5.5375,-6.735 5.5375,-6.735 0,0 0,-57.5375 0,-61.66625 0,-5.46625 -5.5375,-7.26875 -5.5375,-7.26875 0,0 34.03625,0 53.0875,0 z m -23.45375,13.12 0,49.2175 14.19125,0 c 0,0 11.85875,0 11.85875,-10.58125 0,0 -1.26375,-9.425 -22.9925,-18.71625 l 9.1375,0 c 0,10e-4 9.995,0.5075 9.995,-10.18125 0,-11.04875 -10.7975,-9.68625 -10.7975,-9.68625 l -11.3925,-0.0525"
       style="fill:#00a990;fill-opacity:1;fill-rule:nonzero;stroke:none"
       id="path986" />
    <path
       inkscape:connector-curvature="0"
       d="m 177.75244,606.62375 c 19.0475,0 19.855,16.3875 19.855,16.3875 0,17.19125 -14.65875,17.05625 -14.65875,17.05625 21.18625,0 20.6525,19.98 20.6525,19.98 0,23.3225 -28.1125,22.24625 -28.1125,22.24625 0,0 -54.9575,0 -50.82875,0 4.13,0 5.5375,-6.735 5.5375,-6.735 0,0 0,-57.5375 0,-61.66625 0,-5.46625 -5.5375,-7.26875 -5.5375,-7.26875 0,0 34.03625,0 53.0925,0 z m -23.45875,13.12 0,49.2175 14.195,0 c 0,0 11.855,0 11.855,-10.58125 0,0 -1.26375,-9.425 -22.9925,-18.71625 l 9.1375,0 c 0,10e-4 9.99,0.5075 9.99,-10.18125 0,-11.04875 -10.7875,-9.68625 -10.7875,-9.68625 l -11.3975,-0.0525"
       style="fill:#00a990;fill-opacity:1;fill-rule:nonzero;stroke:none"
       id="path988" />
    <path
       inkscape:connector-curvature="0"
       d="m 330.46994,606.6375 c 0,0 6.7475,1.1525 6.7475,7.07 0,5.92375 0,61.85125 0,61.85125 0,0 -1.31875,6.735 -6.7475,6.735 -6.4125,0 30.92875,0 30.92875,0 l 0,-62.33125 12.49625,0 c 0,0 11.025,0.16125 11.025,11.84125 0,11.67625 -10.03875,11.84625 -10.03875,11.84625 l -11.0175,0 c 0,0 4.77125,3.94625 10.85625,17.43375 6.08,13.48 6.08,13.48 6.25,13.65 0.16625,0.17 4.1075,7.56 9.04875,7.56 4.93125,0 24.01,0 24.01,0 0,0 -5.26,-1.47 -8.385,-8.7075 -3.12875,-7.24375 -6.7425,-15.78875 -6.7425,-15.78875 0,0 -3.29125,-10.3675 -11.8425,-10.3675 -8.555,0 -0.49375,0 -0.49375,0 0,0 21.2175,0.99125 21.2175,-21.3825 0,-22.37 -31.095,-19.41 -31.095,-19.41 l -46.2175,0"
       style="fill:#00a990;fill-opacity:1;fill-rule:nonzero;stroke:none"
       id="path990" />
    <path
       inkscape:connector-curvature="0"
       d="m 481.03619,682.29375 29.9425,0 c 0,0 -4.2775,-0.9775 -7.56875,-9.69375 -3.29125,-8.72375 -20.89375,-58.06625 -20.89375,-58.06625 0,0 -1.65,-7.89625 -8.39375,-7.89625 -6.735,0 -34.37,0 -34.37,0 -10e-4,0 7.7275,1.645 5.75375,7.3975 -1.10875,3.2425 -7.2075,19.46875 -12.33625,33.06375 l -7.735,0 c -5.0975,0 -5.91875,3.78375 -7.88625,8.38875 -1.9775,4.605 -6.41625,8.555 -6.41625,8.555 3.61375,-2.13875 11.67125,-1.3175 11.67125,-1.3175 0,0 1.77,0.0263 4.44375,0.0575 -0.925,2.42125 -1.47625,3.89625 -1.47625,3.89625 0,0 -5.9225,13.31875 -8.555,15.615 l 23.02875,0 7.19,-19.44375 c 1.94625,-0.0275 3.52375,-0.0625 4.48375,-0.125 5.26375,-0.3275 6.91375,-3.2875 8.2225,-6.905 1.31875,-3.61875 6.26,-9.215 6.26,-9.215 -3.955,1.1525 -12.01625,0.49375 -12.01625,0.49375 l -1.12125,0 7.54125,-20.3925 20.23125,55.5875"
       style="fill:#00a990;fill-opacity:1;fill-rule:nonzero;stroke:none"
       id="path992" />
    <path
       inkscape:connector-curvature="0"
       d="m 501.82244,606.6375 c 0,0 8.05375,0.65875 8.05375,7.07 0,6.41625 0,40.95875 0,40.95875 -0.001,0 -1.48,28.785 35.86,28.785 37.34125,0 36.19375,-26.9775 36.19375,-26.9775 l 0,-42.1025 c 0,0 -1.65125,-7.73375 -8.0625,-7.73375 -5.91875,0 -17.765,0 -17.765,0 0,0 7.07625,1.645 7.07625,7.73375 0,6.08 0,41.2775 0,41.2775 0,0 0.65375,12.8375 -14.4825,12.8375 0,0 -13.15625,0.3325 -13.15625,-13.6525 0,-13.98125 0,-40.4625 0,-40.4625 0,0 -0.4925,-7.73375 -7.72875,-7.73375 -6.74375,0 -25.98875,0 -25.98875,0"
       style="fill:#00a990;fill-opacity:1;fill-rule:nonzero;stroke:none"
       id="path994" />
    <path
       inkscape:connector-curvature="0"
       d="m 590.37744,606.6375 c 0,0 6.905,2.63125 6.905,8.0575 0,5.42875 0,59.86875 0,59.86875 0,0 -0.9875,7.73 -6.905,7.73 -5.91875,0 25.17125,0 25.17125,0 l 0,-39.46875 30.42625,33.55875 c 0,0 2.96,5.91 12.82375,5.91 9.87375,0 11.515,0 11.515,0 l 0,-67.10125 c 0,0 -0.49375,-8.555 -8.71625,-8.555 -8.22375,0 -16.77875,0 -16.77875,0 0,0 6.5825,1.80625 6.5825,7.56375 0,5.76125 0,32.0725 0,32.0725 l -34.86625,-39.63625 -26.1575,0"
       style="fill:#00a990;fill-opacity:1;fill-rule:nonzero;stroke:none"
       id="path996" />
    <path
       inkscape:connector-curvature="0"
       d="m 223.99744,595.3425 0,96.1875"
       style="fill:none;stroke:#00a990;stroke-width:3.08500004;stroke-linecap:butt;stroke-linejoin:miter;stroke-miterlimit:4;stroke-opacity:1;stroke-dasharray:none"
       id="path998" />
  </g>
</svg>
