<?xml version="1.0" encoding="UTF-8" standalone="no"?>
<svg width="547px" height="100px" viewBox="0 0 547 100" version="1.1" xmlns="http://www.w3.org/2000/svg" xmlns:xlink="http://www.w3.org/1999/xlink" xmlns:sketch="http://www.bohemiancoding.com/sketch/ns">
  <style type="text/css" media="screen">
    <![CDATA[
    g {
        fill: yellow;
        stroke: black;
        stroke-width: 1;
        transition: fill 1s linear 0s;
    }
    g:hover {
        fill: blue;
    }
    ]]>
  </style>
    <title>Slice 1</title>
    <desc>Created with Sketch.</desc>
    <defs></defs>
    <g id="Page-1" stroke="none" stroke-width="1" fill="none" fill-rule="evenodd" sketch:type="MSPage">
        <g id="Bbraun_Logo" sketch:type="MSLayerGroup" transform="translate(0.000000, 1.000000)">
            <g id="layer1" transform="translate(0.338200, 0.658750)" sketch:type="MSShapeGroup">
                <path d="M176.10494,11.62375 C195.16119,11.62375 195.96369,28.01125 195.96369,28.01125 C195.96369,45.2025 181.30619,45.0675 181.30619,45.0675 C202.49244,45.0675 201.95869,65.0475 201.95869,65.0475 C201.95869,88.37 173.84494,87.29375 173.84494,87.29375 L123.01744,87.29375 C127.14244,87.29375 128.55494,80.55875 128.55494,80.55875 L128.55494,18.8925 C128.55494,13.42625 123.01744,11.62375 123.01744,11.62375 L176.10494,11.62375 L176.10494,11.62375 Z M152.65119,24.74375 L152.65119,73.96125 L166.84244,73.96125 C166.84244,73.96125 178.70119,73.96125 178.70119,63.38 C178.70119,63.38 177.43744,53.955 155.70869,44.66375 L164.84619,44.66375 C164.84619,44.66475 174.84119,45.17125 174.84119,34.4825 C174.84119,23.43375 164.04369,24.79625 164.04369,24.79625 L152.65119,24.74375 L152.65119,24.74375 Z" id="path986" fill="#9B9B9B"></path>
                <path d="M53.75244,11.62375 C72.79994,11.62375 73.60744,28.01125 73.60744,28.01125 C73.60744,45.2025 58.94869,45.0675 58.94869,45.0675 C80.13494,45.0675 79.60119,65.0475 79.60119,65.0475 C79.60119,88.37 51.48869,87.29375 51.48869,87.29375 L0.65994,87.29375 C4.78994,87.29375 6.19744,80.55875 6.19744,80.55875 L6.19744,18.8925 C6.19744,13.42625 0.65994,11.62375 0.65994,11.62375 L53.75244,11.62375 L53.75244,11.62375 Z M30.29369,24.74375 L30.29369,73.96125 L44.48869,73.96125 C44.48869,73.96125 56.34369,73.96125 56.34369,63.38 C56.34369,63.38 55.07994,53.955 33.35119,44.66375 L42.48869,44.66375 C42.48869,44.66475 52.47869,45.17125 52.47869,34.4825 C52.47869,23.43375 41.69119,24.79625 41.69119,24.79625 L30.29369,24.74375 L30.29369,24.74375 Z" id="path988" fill="#9B9B9B"></path>
                <path d="M206.46994,11.6375 C206.46994,11.6375 213.21744,12.79 213.21744,18.7075 L213.21744,80.55875 C213.21744,80.55875 211.89869,87.29375 206.46994,87.29375 C200.05744,87.29375 237.39869,87.29375 237.39869,87.29375 L237.39869,24.9625 L249.89494,24.9625 C249.89494,24.9625 260.91994,25.12375 260.91994,36.80375 C260.91994,48.48 250.88119,48.65 250.88119,48.65 L239.86369,48.65 C239.86369,48.65 244.63494,52.59625 250.71994,66.08375 C256.79994,79.56375 256.79994,79.56375 256.96994,79.73375 C257.13619,79.90375 261.07744,87.29375 266.01869,87.29375 L290.02869,87.29375 C290.02869,87.29375 284.76869,85.82375 281.64369,78.58625 C278.51494,71.3425 274.90119,62.7975 274.90119,62.7975 C274.90119,62.7975 271.60994,52.43 263.05869,52.43 L262.56494,52.43 C262.56494,52.43 283.78244,53.42125 283.78244,31.0475 C283.78244,8.6775 252.68744,11.6375 252.68744,11.6375 L206.46994,11.6375" id="path990" fill="#9B9B9B"></path>
                <path d="M357.03619,87.29375 L386.97869,87.29375 C386.97869,87.29375 382.70119,86.31625 379.40994,77.6 C376.11869,68.87625 358.51619,19.53375 358.51619,19.53375 C358.51619,19.53375 356.86619,11.6375 350.12244,11.6375 L315.75244,11.6375 C315.75144,11.6375 323.47994,13.2825 321.50619,19.035 C320.39744,22.2775 314.29869,38.50375 309.16994,52.09875 L301.43494,52.09875 C296.33744,52.09875 295.51619,55.8825 293.54869,60.4875 C291.57119,65.0925 287.13244,69.0425 287.13244,69.0425 C290.74619,66.90375 298.80369,67.725 298.80369,67.725 C298.80369,67.725 300.57369,67.7513 303.24744,67.7825 C302.32244,70.20375 301.77119,71.67875 301.77119,71.67875 C301.77119,71.67875 295.84869,84.9975 293.21619,87.29375 L316.24494,87.29375 L323.43494,67.85 C325.38119,67.8225 326.95869,67.7875 327.91869,67.725 C333.18244,67.3975 334.83244,64.4375 336.14119,60.82 C337.45994,57.20125 342.40119,51.605 342.40119,51.605 C338.44619,52.7575 330.38494,52.09875 330.38494,52.09875 L329.26369,52.09875 L336.80494,31.70625 L357.03619,87.29375" id="path992" fill="#9B9B9B"></path>
                <path d="M377.82244,11.6375 C377.82244,11.6375 385.87619,12.29625 385.87619,18.7075 L385.87619,59.66625 C385.87519,59.66625 384.39619,88.45125 421.73619,88.45125 C459.07744,88.45125 457.92994,61.47375 457.92994,61.47375 L457.92994,19.37125 C457.92994,19.37125 456.27869,11.6375 449.86744,11.6375 L432.10244,11.6375 C432.10244,11.6375 439.17869,13.2825 439.17869,19.37125 L439.17869,60.64875 C439.17869,60.64875 439.83244,73.48625 424.69619,73.48625 C424.69619,73.48625 411.53994,73.81875 411.53994,59.83375 L411.53994,19.37125 C411.53994,19.37125 411.04744,11.6375 403.81119,11.6375 L377.82244,11.6375" id="path994" fill="#9B9B9B"></path>
                <path d="M466.37744,11.6375 C466.37744,11.6375 473.28244,14.26875 473.28244,19.695 L473.28244,79.56375 C473.28244,79.56375 472.29494,87.29375 466.37744,87.29375 C460.45869,87.29375 491.54869,87.29375 491.54869,87.29375 L491.54869,47.825 L521.97494,81.38375 C521.97494,81.38375 524.93494,87.29375 534.79869,87.29375 L546.31369,87.29375 L546.31369,20.1925 C546.31369,20.1925 545.81994,11.6375 537.59744,11.6375 L520.81869,11.6375 C520.81869,11.6375 527.40119,13.44375 527.40119,19.20125 L527.40119,51.27375 L492.53494,11.6375 L466.37744,11.6375" id="path996" fill="#9B9B9B"></path>
                <path d="M99.99744,0.3425 L99.99744,96.53" id="path998" stroke="#9B9B9B" stroke-width="3.08500004"></path>
            </g>
        </g>
    </g>
</svg>
