<?xml version="1.0" encoding="UTF-8"?>
<!DOCTYPE svg PUBLIC "-//W3C//DTD SVG 1.1//EN" "http://www.w3.org/Graphics/SVG/1.1/DTD/svg11.dtd">
<!-- Creator: CorelDRAW X5 -->
<svg xmlns="http://www.w3.org/2000/svg" xml:space="preserve" width="100mm" height="30mm" style="shape-rendering:geometricPrecision; text-rendering:geometricPrecision; image-rendering:optimizeQuality; fill-rule:evenodd; clip-rule:evenodd" viewBox="0 0 10000 3000" xmlns:xlink="http://www.w3.org/1999/xlink">
 <defs>
  <style type="text/css">
   <![CDATA[
    .fil0 {fill:red}
   ]]>
  </style>
 </defs>
 <g id="Ebene_x0020_2">
  <metadata id="CorelCorpID_0Corel-Layer"/>
  <path class="fil0" d="M4103 2380c267,0 628,-84 628,-433l0 -144c0,-186 -85,-348 -236,-387 61,-83 113,-160 113,-316l0 -103c0,-324 -286,-377 -508,-377l-684 0 0 1760 689 0zm7 -1458c112,1 147,52 144,132l0 115c0,69 -49,157 -168,157l-318 0 0 -404 342 0zm89 708c143,0 172,76 172,169l0 87c0,121 -51,193 -189,193l-413 0 0 -449 431 0z"/>
  <path class="fil0" d="M2539 2380c267,0 628,-84 628,-433l0 -144c0,-186 -85,-348 -236,-387 61,-83 113,-160 113,-316l0 -103c0,-324 -286,-377 -508,-377l-684 0 0 1760 689 0zm7 -1458c112,1 147,52 144,132l0 115c0,69 -49,157 -168,157l-318 0 0 -404 342 0zm89 708c143,0 172,76 172,169l0 87c0,121 -51,193 -189,193l-413 0 0 -449 431 0z"/>
  <path class="fil0" d="M584 2380l384 0c0,-240 0,-481 0,-721l522 0 0 -317 -522 0 0 -404 640 0 0 -317 -1024 0 0 1760z"/>
  <path class="fil0" d="M7532 1023l-79 0 0 -397 235 0 0 61 -156 0 0 109 124 0 0 60 -124 0 0 168zm-1790 0l-236 0 0 -397 81 0 0 332 155 0 0 65zm-480 0l-79 0 0 -397 235 0 0 61 -156 0 0 109 124 0 0 60 -124 0 0 168zm1246 -219l0 168c0,27 -68,53 -95,52l-66 -1c-47,-1 -74,-4 -103,-45 -28,-41 -34,-100 -34,-154 0,-57 2,-107 32,-148 28,-38 54,-57 111,-57l134 0 -1 63 -123 -4c-30,-1 -40,5 -55,29 -16,25 -20,63 -20,111 0,100 12,148 79,148 26,0 57,-2 69,-23 9,-16 8,-56 8,-83l-88 0 0 -58 151 0zm-401 -178l0 288c0,33 -3,40 -13,55 -10,18 -24,26 -48,40 -24,14 -53,20 -87,20 -35,0 -63,-6 -85,-17 -22,-12 -36,-21 -48,-40 -12,-18 -15,-28 -15,-53l0 -293 75 0 0 288c0,26 8,30 23,41 16,11 37,12 58,12 24,0 33,-5 49,-14 16,-9 21,-17 21,-39l0 -288 69 0zm1137 255l-59 -187 -66 186 125 0zm766 142l-250 0 0 -397 248 0 0 59 -171 0 0 108 133 0 0 58 -133 0 0 111 174 0 0 62zm-2754 616l93 0c21,0 31,-5 43,-15 12,-10 14,-24 14,-42 0,-17 -1,-30 -13,-41 -12,-11 -34,-16 -54,-16l-82 0 0 114zm3149 -616l-74 0 -153 -254c-2,-4 -7,-10 -12,-19 -2,-4 -6,-10 -11,-18l0 291 -62 0 0 -397 85 0 140 234c1,2 10,16 27,43l0 -277 60 0 0 397zm-1027 0l-82 0 -29 -87 -166 0 -30 87 -70 0 141 -397 94 0 142 397zm-459 0l-76 0 0 -172 -145 0 0 172 -76 0 0 -397 76 0 0 163 145 0 0 -163 76 0 0 397zm-1662 445l70 0c19,0 30,-5 41,-16 11,-11 11,-24 11,-41 0,-18 0,-32 -12,-40 -13,-9 -22,-13 -39,-13l-70 0 0 110zm-72 230l0 -397 140 0c28,0 42,2 61,7 18,5 40,20 48,40 9,21 14,33 14,56 0,31 -5,45 -17,60 -7,9 -17,23 -28,30 30,5 43,11 59,29 15,18 18,43 18,67 0,31 -6,56 -27,77 -21,21 -55,31 -99,31l-169 0zm788 -221l78 0c27,0 28,-5 42,-16 13,-11 15,-26 15,-45 0,-17 0,-32 -14,-42 -11,-9 -21,-16 -45,-16l-76 0 0 120zm212 221l-81 0 -66 -163 -66 0 0 163 -76 0 0 -397 167 0c51,0 72,12 93,36 22,25 22,48 22,82 0,51 -17,85 -68,104l74 175zm497 0l-76 0 0 -397 76 0 0 397zm-175 0l-227 0 0 -397 80 0 0 332 147 0 0 65zm-647 676l-81 0 -66 -163 -66 0 0 163 -76 0 0 -397 167 0c51,0 72,12 93,36 22,25 22,48 22,82 0,51 -17,85 -68,104l74 175zm-212 -221l78 0c27,0 28,-5 42,-16 13,-11 15,-26 15,-45 0,-17 0,-32 -14,-42 -11,-9 -21,-16 -45,-16l-76 0 0 120zm1447 -455l-74 0 -153 -254c-2,-4 -7,-10 -12,-19 -2,-4 -6,-10 -11,-18l0 291 -62 0 0 -397 85 0 140 234c1,2 10,16 27,43l0 -277 60 0 0 397zm-233 617l55 0c34,0 53,-5 77,-29 24,-24 20,-67 20,-114 0,-39 3,-76 -18,-103 -21,-27 -36,-36 -70,-36l-64 0 0 282zm-186 58l-74 0 -153 -254c-2,-4 -7,-10 -12,-19 -2,-4 -6,-10 -11,-18l0 291 -62 0 0 -397 85 0 140 234c1,2 10,16 27,43l0 -277 60 0 0 397zm108 0l0 -397 148 0c58,0 96,11 131,49 35,38 35,94 36,150 1,72 -17,124 -53,163 -24,26 -64,35 -131,35l-131 0zm1047 0l-74 0 -153 -254c-2,-4 -7,-10 -12,-19 -2,-4 -6,-10 -11,-18l0 291 -62 0 0 -397 85 0 140 234c1,2 10,16 27,43l0 -277 60 0 0 397zm110 0l0 -397 140 0c28,0 42,2 61,7 18,5 40,20 48,40 9,21 14,33 14,56 1,31 -5,45 -17,60 -7,9 -17,23 -28,30 30,5 43,11 59,29 15,18 18,43 18,67 0,31 -6,56 -27,77 -21,21 -55,31 -99,31l-169 0zm-2683 -60l93 0c21,0 31,-5 43,-15 12,-10 14,-24 14,-42 0,-17 -1,-30 -13,-41 -12,-11 -34,-16 -54,-16l-82 0 0 114zm2755 -171l70 0c19,0 30,-5 41,-16 11,-11 11,-24 11,-41 0,-18 0,-32 -12,-40 -13,-9 -22,-13 -39,-13l-70 0 0 110zm-2828 230l0 -397 140 0c28,0 42,2 61,7 18,5 40,20 48,40 9,21 14,33 14,56 0,31 -5,45 -17,60 -7,9 -17,23 -28,30 30,5 43,11 59,29 15,18 18,43 18,67 0,31 -6,56 -27,77 -21,21 -55,31 -99,31l-169 0zm72 -230l70 0c19,0 30,-5 41,-16 11,-11 11,-24 11,-41 0,-18 0,-32 -12,-40 -13,-9 -22,-13 -39,-13l-70 0 0 110zm2755 171l93 0c21,0 31,-5 43,-15 12,-10 14,-24 14,-42 0,-17 -1,-30 -13,-41 -12,-11 -34,-16 -54,-16l-82 0 0 114zm1015 60l-81 0 -66 -163 -66 0 0 163 -76 0 0 -397 142 0c51,0 89,11 113,32 24,22 36,50 36,84 0,51 -25,86 -76,105l74 175zm-2864 -142l-60 -187 -65 186 125 0zm133 142l-82 0 -29 -87 -165 0 -31 87 -70 0 141 -397 94 0 142 397zm2519 -220l53 0c27,0 48,-5 62,-16 13,-11 20,-26 20,-45 0,-17 -7,-32 -20,-42 -13,-11 -32,-16 -56,-16l-59 0 0 120zm-197 -177l0 288c0,34 -2,38 -13,55 -12,20 -24,26 -48,40 -24,14 -53,20 -87,20 -35,0 -63,-6 -85,-17 -22,-12 -36,-21 -48,-40 -11,-18 -15,-22 -15,-53l0 -293 77 0 0 288c0,26 8,30 23,41 16,11 35,12 56,12 24,0 33,-5 49,-14 16,-9 21,-17 21,-39l0 -288 69 0zm-2796 -278l-250 0 0 -397 248 0 0 59 -171 0 0 108 133 0 0 58 -133 0 0 111 174 0 0 62zm3579 459l0 168c0,27 -60,53 -87,52l-74 -1c-47,0 -74,-4 -103,-45 -28,-41 -34,-100 -34,-154 0,-57 4,-113 30,-150 29,-42 56,-55 113,-55l134 0 -1 63 -124 -4c-30,-1 -40,5 -55,29 -16,25 -20,63 -20,111 0,100 12,148 79,148 26,0 57,-2 69,-23 9,-16 8,-56 8,-83l-88 0 0 -58 151 0zm-1957 216l-250 0 0 -397 248 0 0 59 -171 0 0 108 133 0 0 58 -133 0 0 111 174 0 0 62z"/>
 </g>
 <g id="Hilfslinien">
  <metadata id="CorelCorpID_1Corel-Layer"/>
 </g>
</svg>