<?xml version="1.0" encoding="UTF-8" standalone="no"?>
<!DOCTYPE svg PUBLIC "-//W3C//DTD SVG 1.0//EN" "http://www.w3.org/TR/2001/REC-SVG-20010904/DTD/svg10.dtd">
<!-- Created with Inkscape (http://www.inkscape.org/) -->
<svg xmlns:svg="http://www.w3.org/2000/svg" xmlns="http://www.w3.org/2000/svg" version="1.0" width="1000" height="375" id="svg2757">
  <defs id="defs2759"/>
  <g id="layer1">
    <path d="M -1.5e-05,375 L 1000,375 L 1000,-2.8421709e-14 L -1.5e-05,-2.8421709e-14 L -1.5e-05,375 z" id="path31" style="fill:#0060a0;fill-opacity:1;fill-rule:nonzero;stroke:none"/>
    <g transform="matrix(0.9354649,0,0,0.9354649,-20.009684,15.785345)" id="g2791">
      <path d="M 302.31105,182.00659 L 302.31105,126.73861 L 291.51859,126.73861 L 291.51859,149.32926 L 272.81558,149.32926 L 272.81558,126.73861 L 262.02313,126.73861 L 262.02313,182.00659 L 272.81558,182.00659 L 272.81558,158.87485 L 291.51859,158.87485 L 291.51859,182.00659 L 302.31105,182.00659" id="path95" style="fill:#ffffff;fill-opacity:1;fill-rule:nonzero;stroke:none"/>
      <path d="M 360.90205,182.00659 L 360.90205,172.38454 L 335.28245,172.38454 L 335.28245,158.95131 L 357.09674,158.95131 L 357.09674,149.32926 L 335.28245,149.32926 L 335.28245,136.36067 L 360.90205,136.36067 L 360.90205,126.73861 L 324.49587,126.73861 L 324.49587,182.00659 L 360.90205,182.00659" id="path99" style="fill:#ffffff;fill-opacity:1;fill-rule:nonzero;stroke:none"/>
      <path d="M 416.63465,182.00659 L 416.63465,172.38454 L 391.56204,172.38454 L 391.56204,126.73861 L 380.77546,126.73861 L 380.77546,182.00659 L 416.63465,182.00659" id="path103" style="fill:#ffffff;fill-opacity:1;fill-rule:nonzero;stroke:none"/>
      <path d="M 484.78299,182.00659 L 484.78299,126.73861 L 474.14934,126.73861 L 459.78684,156.62225 L 445.34788,126.73861 L 434.71423,126.73861 L 434.71423,182.00659 L 445.50668,182.00659 L 445.50668,149.79389 L 456.14035,170.74949 L 463.43334,170.74949 L 473.99642,149.79389 L 473.99642,182.00659 L 484.78299,182.00659" id="path107" style="fill:#ffffff;fill-opacity:1;fill-rule:nonzero;stroke:none"/>
      <path d="M 547.25575,182.00659 L 547.25575,126.73861 L 536.46917,126.73861 L 536.46917,149.32926 L 517.76028,149.32926 L 517.76028,126.73861 L 506.96783,126.73861 L 506.96783,182.00659 L 517.76028,182.00659 L 517.76028,158.87485 L 536.46917,158.87485 L 536.46917,182.00659 L 547.25575,182.00659" id="path111" style="fill:#ffffff;fill-opacity:1;fill-rule:nonzero;stroke:none"/>
      <path d="M 608.41105,154.36966 C 608.41105,144.82406 608.48751,137.91336 602.90013,132.32599 C 599.02426,128.44423 594.28381,126.26809 587.99654,126.26809 C 581.70928,126.26809 576.89825,128.44423 573.01649,132.32599 C 567.42323,137.91336 567.58203,144.82406 567.58203,154.36966 C 567.58203,163.92113 567.42323,170.82595 573.01649,176.41921 C 576.89825,180.29509 581.70928,182.47122 587.99654,182.47122 C 594.28381,182.47122 599.02426,180.29509 602.90013,176.41921 C 608.48751,170.82595 608.41105,163.92113 608.41105,154.36966 z M 597.6186,154.36966 C 597.6186,165.0092 597.00104,167.56763 594.90724,169.89669 C 593.35455,171.68464 590.94903,172.84917 587.99654,172.84917 C 585.04405,172.84917 582.56208,171.68464 581.00938,169.89669 C 578.91559,167.56763 578.36861,165.0092 578.36861,154.36966 C 578.36861,143.736 578.91559,141.17168 581.00938,138.84851 C 582.56208,137.06056 585.04405,135.89602 587.99654,135.89602 C 590.94903,135.89602 593.35455,137.06056 594.90724,138.84851 C 597.00104,141.17168 597.6186,143.736 597.6186,154.36966" id="path115" style="fill:#ffffff;fill-opacity:1;fill-rule:nonzero;stroke:none"/>
      <path d="M 664.59066,182.00659 L 664.59066,172.38454 L 639.51803,172.38454 L 639.51803,126.73861 L 628.73145,126.73861 L 628.73145,182.00659 L 664.59066,182.00659" id="path119" style="fill:#ffffff;fill-opacity:1;fill-rule:nonzero;stroke:none"/>
      <path d="M 712.01278,136.36067 L 712.01278,126.73274 L 672.34829,126.73274 L 672.34829,136.36067 L 686.78724,136.36067 L 686.78724,182.00659 L 697.57382,182.00659 L 697.57382,136.36067 L 712.01278,136.36067" id="path123" style="fill:#ffffff;fill-opacity:1;fill-rule:nonzero;stroke:none"/>
      <path d="M 763.08139,182.00659 L 763.08139,172.38454 L 739.40856,172.38454 L 763.08139,135.27847 L 763.08139,126.73861 L 727.76329,126.73861 L 727.76329,136.36067 L 750.35394,136.36067 L 726.75757,173.31381 L 726.75757,182.00659 L 763.08139,182.00659" id="path127" style="fill:#ffffff;fill-opacity:1;fill-rule:nonzero;stroke:none"/>
      <path d="M 291.51859,326.89608 L 296.91292,326.89608 L 296.91292,222.44155 L 291.51859,222.44155 L 291.51859,326.89608 z" id="path129" style="fill:#ffffff;fill-opacity:1;fill-rule:nonzero;stroke:none"/>
      <path d="M 368.24797,269.17554 C 364.28976,273.35725 359.37875,275.11581 353.8796,275.11581 C 348.45689,275.11581 343.7635,273.13376 340.17582,269.54019 C 335.04131,264.41157 335.11189,258.61834 335.11189,248.57283 C 335.11189,238.53319 335.04131,232.73996 340.17582,227.60546 C 343.7635,224.0119 348.30986,222.03572 353.8796,222.03572 C 364.95436,222.03572 371.40042,229.29343 372.87079,238.23912 L 364.8779,238.23912 C 363.56046,232.51647 359.7434,229.1464 353.8796,229.1464 C 350.80359,229.1464 348.01579,230.39327 346.18078,232.36943 C 343.61647,235.15724 343.0342,238.09208 343.0342,248.57283 C 343.0342,259.05945 343.61647,262.06487 346.18078,264.85268 C 348.01579,266.82884 350.80359,268.00513 353.8796,268.00513 C 357.32613,268.00513 360.33154,266.68181 362.38417,264.33511 C 364.28976,262.13545 365.02494,259.49467 365.02494,256.1246 L 365.02494,253.19565 L 353.8796,253.19565 L 353.8796,246.44962 L 372.94136,246.44962 L 372.94136,254.43663 C 372.94136,261.18266 371.6945,265.5114 368.24797,269.17554" id="path133" style="fill:#ffffff;fill-opacity:1;fill-rule:nonzero;stroke:none"/>
      <path d="M 387.38621,274.6747 L 387.38621,222.47683 L 420.7399,222.47683 L 420.7399,229.58751 L 395.30264,229.58751 L 395.30264,244.83811 L 417.00518,244.83811 L 417.00518,251.87232 L 395.30264,251.87232 L 395.30264,267.56402 L 420.7399,267.56402 L 420.7399,274.6747 L 387.38621,274.6747" id="path137" style="fill:#ffffff;fill-opacity:1;fill-rule:nonzero;stroke:none"/>
      <path d="M 472.42608,274.6747 L 472.42608,239.77418 L 460.40439,265.21733 L 454.5347,265.21733 L 442.22484,239.77418 L 442.22484,274.6747 L 434.30252,274.6747 L 434.30252,222.47683 L 442.22484,222.47683 L 457.46955,254.9542 L 472.42608,222.47683 L 480.34251,222.47683 L 480.34251,274.6747 L 472.42608,274.6747" id="path141" style="fill:#ffffff;fill-opacity:1;fill-rule:nonzero;stroke:none"/>
      <path d="M 496.69293,274.6747 L 496.69293,222.47683 L 530.05251,222.47683 L 530.05251,229.58751 L 504.60936,229.58751 L 504.60936,244.83811 L 526.31191,244.83811 L 526.31191,251.87232 L 504.60936,251.87232 L 504.60936,267.56402 L 530.05251,267.56402 L 530.05251,274.6747 L 496.69293,274.6747" id="path145" style="fill:#ffffff;fill-opacity:1;fill-rule:nonzero;stroke:none"/>
      <path d="M 543.60925,274.6747 L 551.52568,274.6747 L 551.52568,222.47566 L 543.60925,222.47566 L 543.60925,274.6747 z" id="path147" style="fill:#ffffff;fill-opacity:1;fill-rule:nonzero;stroke:none"/>
      <path d="M 599.98882,274.6747 L 575.869,237.94505 L 575.869,274.6747 L 567.95257,274.6747 L 567.95257,222.47683 L 575.21027,222.47683 L 599.3301,259.13002 L 599.3301,222.47683 L 607.24653,222.47683 L 607.24653,274.6747 L 599.98882,274.6747" id="path151" style="fill:#ffffff;fill-opacity:1;fill-rule:nonzero;stroke:none"/>
      <path d="M 637.52423,275.10992 C 629.67837,275.10992 624.03219,273.27491 619.05059,268.21686 L 624.32625,263.01179 C 628.13743,266.82297 632.31914,267.99925 637.67126,267.99925 C 644.48786,267.99925 648.44607,265.06441 648.44607,260.00637 C 648.44607,257.73613 647.78735,255.82465 646.39345,254.58366 C 645.076,253.3368 643.75268,252.81923 640.67668,252.38401 L 634.51881,251.50178 C 630.26652,250.91364 626.89645,249.44916 624.62033,247.32595 C 622.05601,244.9028 620.80915,241.60331 620.80915,237.35103 C 620.80915,228.26419 627.40813,222.02985 638.25353,222.02985 C 645.14659,222.02985 649.98701,223.7884 654.45692,227.97011 L 649.39887,232.9517 C 646.17583,229.8757 642.43524,228.92291 638.03591,228.92291 C 631.87803,228.92291 628.50796,232.44001 628.50796,237.05695 C 628.50796,238.96842 629.09023,240.65051 630.48413,241.89738 C 631.80746,243.07367 633.93066,243.95001 636.34794,244.31466 L 642.2882,245.19687 C 647.12863,245.93206 649.83998,247.10246 652.03965,249.08451 C 654.89802,251.57825 656.29193,255.31296 656.29193,259.78875 C 656.29193,269.39315 648.44607,275.10992 637.52423,275.10992" id="path155" style="fill:#ffffff;fill-opacity:1;fill-rule:nonzero;stroke:none"/>
      <path d="M 686.49317,275.10992 C 681.07047,275.10992 676.37707,273.12788 672.78351,269.54019 C 667.64901,264.40568 667.72547,258.61246 667.72547,248.56695 C 667.72547,238.52732 667.64901,232.73409 672.78351,227.59958 C 676.37707,224.0119 681.07047,222.02985 686.49317,222.02985 C 696.09758,222.02985 703.27883,227.67604 705.11383,238.0862 L 697.05037,238.0862 C 695.8035,232.80466 692.28052,229.14052 686.49317,229.14052 C 683.41129,229.14052 680.62936,230.31681 678.79436,232.29297 C 676.23004,235.08079 675.64189,238.0862 675.64189,248.56695 C 675.64189,259.05357 676.23004,262.05899 678.79436,264.84679 C 680.62936,266.82297 683.41129,267.99925 686.49317,267.99925 C 692.28052,267.99925 695.87996,264.33511 697.12094,259.05357 L 705.11383,259.05357 C 703.35529,269.46373 695.95054,275.10992 686.49317,275.10992" id="path159" style="fill:#ffffff;fill-opacity:1;fill-rule:nonzero;stroke:none"/>
      <path d="M 747.56025,274.6747 L 747.56025,251.87232 L 726.37528,251.87232 L 726.37528,274.6747 L 718.45884,274.6747 L 718.45884,222.47683 L 726.37528,222.47683 L 726.37528,244.76165 L 747.56025,244.76165 L 747.56025,222.47683 L 755.47668,222.47683 L 755.47668,274.6747 L 747.56025,274.6747" id="path163" style="fill:#ffffff;fill-opacity:1;fill-rule:nonzero;stroke:none"/>
      <path d="M 788.10108,234.27502 L 779.96116,257.44205 L 796.0175,257.44205 L 788.10108,234.27502 z M 801.81074,274.6747 L 798.21717,264.18807 L 777.62033,264.18807 L 774.02677,274.6747 L 765.59277,274.6747 L 784.73101,222.47096 L 791.1065,222.47096 L 810.23886,274.6747 L 801.81074,274.6747" id="path167" style="fill:#ffffff;fill-opacity:1;fill-rule:nonzero;stroke:none"/>
      <path d="M 828.27135,229.58162 L 828.27135,245.49095 L 849.97394,245.49095 L 849.97394,252.60161 L 828.27135,252.60161 L 828.27135,274.66882 L 820.35492,274.66882 L 820.35492,222.47096 L 853.71457,222.47096 L 853.71457,229.58162 L 828.27135,229.58162" id="path171" style="fill:#ffffff;fill-opacity:1;fill-rule:nonzero;stroke:none"/>
      <path d="M 883.69815,229.58162 L 883.69815,274.66882 L 875.78173,274.66882 L 875.78173,229.58162 L 861.4133,229.58162 L 861.4133,222.47096 L 898.06647,222.47096 L 898.06647,229.58162 L 883.69815,229.58162" id="path175" style="fill:#ffffff;fill-opacity:1;fill-rule:nonzero;stroke:none"/>
      <path d="M 130.57863,191.72274 C 132.69595,156.0694 160.36816,127.29735 195.53334,123.4744 C 194.40999,133.67873 193.74539,144.94758 193.7395,157.35743 C 193.20429,157.34568 192.66908,157.33391 192.13386,157.33391 C 169.81965,157.33391 151.04019,172.47276 145.51163,193.04607 C 142.39446,193.11664 137.0835,192.96373 130.57863,191.72274 z M 96.2192,175.58993 C 96.40741,103.01286 153.46923,43.81018 225.18761,40.187208 C 222.9703,42.604484 215.0774,52.032446 207.755,70.876608 C 150.2756,75.246524 104.61202,121.88053 101.77717,179.77752 C 99.91863,178.50713 98.06009,177.11322 96.2192,175.58993 z M 110.96987,185.16493 C 112.32849,131.6908 152.45761,87.862235 204.29083,80.728037 C 201.43244,89.709007 198.83871,100.33091 196.93901,112.76429 C 155.98648,115.46976 123.22094,148.12356 120.33902,189.03492 C 117.31596,188.01155 114.16938,186.74116 110.96987,185.16493" id="path179" style="fill:#ffffff;fill-opacity:1;fill-rule:nonzero;stroke:none"/>
    </g>
  </g>
</svg>