<?xml version="1.0" encoding="UTF-8" standalone="no"?>
<!-- Created with Inkscape (http://www.inkscape.org/) by Marsupilami -->
<svg
   xmlns:svg="http://www.w3.org/2000/svg"
   xmlns="http://www.w3.org/2000/svg"
   version="1.0"
   width="1024"
   height="477"
   viewBox="0 0 76.183746 35.455627"
   id="svg2837">
  <defs
     id="defs2839" />
  <g
     transform="translate(-226.84625,-656.655)"
     id="layer1">
    <path
       d="M 215.358,51.427 C 215.402,51.421 215.369,51.367 215.391,51.339 L 215.407,51.339 C 215.572,51.46 215.72,51.597 215.917,51.646 C 216.317,51.69 216.679,51.564 216.992,51.356 C 217.145,51.246 217.277,51.109 217.403,50.961 C 217.502,50.857 217.65,50.857 217.776,50.818 C 218.138,50.747 218.467,50.615 218.774,50.418 C 218.988,50.292 219.158,50.062 219.404,50.029 C 219.706,49.979 219.985,49.881 220.249,49.727 C 220.561,49.519 220.863,49.267 221.23,49.195 C 221.998,49.113 222.628,48.68 223.237,48.258 C 223.593,48.055 223.999,47.808 224.432,47.962 C 224.553,48.017 224.651,48.121 224.695,48.241 C 224.733,48.527 224.558,48.746 224.377,48.954 C 224.004,49.382 223.379,49.744 223.445,50.38 C 223.56,50.84 224.064,51.114 224.47,51.246 C 224.695,51.328 224.969,51.301 225.15,51.487 C 225.254,51.553 225.293,51.767 225.452,51.69 C 225.583,51.602 225.594,51.449 225.616,51.306 C 225.676,50.857 225.578,50.407 225.172,50.149 C 224.98,50.029 224.766,49.974 224.547,49.93 C 224.887,49.65 225.21,49.322 225.402,48.943 C 225.512,48.724 225.578,48.527 225.594,48.269 C 225.583,47.792 225.287,47.375 224.876,47.128 C 224.635,46.997 224.361,46.948 224.07,46.953 C 223.96,46.958 223.862,46.98 223.757,46.98 C 223.801,46.756 223.807,46.448 223.752,46.202 C 223.736,46.07 223.648,45.928 223.659,45.774 C 223.719,45.698 223.812,45.692 223.906,45.692 C 224.119,45.687 224.366,45.703 224.476,45.484 C 224.574,45.281 224.624,45.04 224.7,44.837 C 224.733,44.804 224.744,44.727 224.799,44.743 C 224.942,44.875 225.084,45.04 225.293,44.996 C 225.49,44.87 225.682,44.721 225.868,44.579 C 225.918,44.524 225.939,44.458 225.945,44.382 C 226.11,44.316 226.307,44.201 226.362,44.02 C 226.4,43.899 226.378,43.768 226.411,43.652 C 226.466,43.521 226.592,43.362 226.488,43.208 L 226.427,43.154 L 225.819,42.967 C 225.764,42.973 225.715,42.995 225.682,43.044 C 225.358,43.06 224.98,42.962 224.728,43.192 C 224.613,43.285 224.531,43.406 224.448,43.521 C 224.262,43.417 223.982,43.356 223.79,43.482 C 223.39,43.795 222.984,44.091 222.453,44.08 C 222.217,44.025 221.921,43.959 221.69,44.069 C 221.471,44.228 221.208,44.31 221.027,44.541 C 220.775,44.809 220.764,45.127 220.682,45.462 L 220.665,45.478 C 220.325,45.385 219.952,45.429 219.602,45.451 C 219.311,45.462 219.037,45.423 218.774,45.363 C 218.439,45.292 218.072,45.27 217.716,45.281 L 217.546,45.149 C 217.622,45.127 217.71,45.133 217.77,45.078 L 217.836,45.007 C 218.127,44.979 218.45,45.029 218.724,44.952 C 218.79,44.93 218.856,44.87 218.889,44.804 C 218.916,44.727 218.916,44.628 218.872,44.557 C 218.73,44.371 218.653,44.135 218.461,43.981 C 218.406,43.921 218.264,43.992 218.253,43.888 C 218.187,43.603 217.924,43.362 217.644,43.302 C 217.529,43.28 217.409,43.307 217.305,43.34 C 216.975,43.455 216.63,43.548 216.29,43.636 C 216.175,43.669 216.087,43.779 215.989,43.85 C 215.841,43.855 215.643,43.801 215.534,43.932 C 215.457,44.003 215.375,44.168 215.369,44.173 C 215.062,43.79 214.717,43.406 214.327,43.077 C 212.704,41.701 210.276,41.251 208.229,41.991 C 207.1,42.38 206.02,43.148 205.29,44.168 C 205.301,44.217 205.241,44.19 205.247,44.234 C 205.181,44.091 205.082,43.91 204.918,43.855 L 204.413,43.784 C 204.013,43.614 203.607,43.477 203.201,43.329 C 202.96,43.274 202.692,43.324 202.516,43.477 C 202.379,43.598 202.291,43.735 202.209,43.883 C 202.127,43.921 202.012,43.888 201.93,43.91 C 201.847,43.921 201.803,43.987 201.754,44.042 L 201.403,44.623 C 201.37,44.7 201.37,44.815 201.409,44.892 C 201.48,45.023 201.623,45.084 201.76,45.089 C 202.017,45.111 202.308,45.193 202.549,45.084 C 202.664,45.215 202.84,45.193 202.999,45.226 L 203.015,45.231 C 202.938,45.314 202.834,45.368 202.752,45.451 C 202.291,45.341 201.771,45.412 201.326,45.5 C 200.915,45.599 200.559,45.357 200.153,45.418 L 200.027,45.149 C 199.841,44.941 199.824,44.59 199.534,44.448 C 199.331,44.393 199.166,44.256 198.985,44.162 C 198.662,43.992 198.229,44.058 197.889,44.129 C 197.752,44.14 197.642,44.135 197.522,44.086 C 197.401,44.003 197.286,43.877 197.16,43.79 C 196.957,43.702 196.781,43.537 196.551,43.521 C 196.42,43.526 196.299,43.609 196.167,43.57 C 196.003,43.395 195.932,43.104 195.668,43.033 C 195.405,42.962 195.093,43.016 194.84,43.077 C 194.764,43.044 194.709,42.973 194.616,42.995 C 194.44,43.038 194.265,43.088 194.106,43.181 C 194.04,43.241 194.029,43.318 194.013,43.395 C 194.018,43.51 194.1,43.603 194.15,43.702 C 194.172,43.822 194.161,43.97 194.216,44.08 C 194.298,44.261 194.479,44.365 194.643,44.448 C 194.665,44.574 194.742,44.689 194.851,44.749 C 195.065,44.864 195.285,45.122 195.553,44.968 L 195.838,44.721 C 196.091,44.831 196.025,45.089 196.156,45.292 C 196.217,45.429 196.299,45.588 196.469,45.599 C 196.584,45.621 196.705,45.588 196.82,45.599 C 196.984,45.648 197.149,45.714 197.275,45.84 L 197.264,45.944 C 197.099,46.246 197.061,46.613 197.045,46.98 C 196.765,46.953 196.447,46.904 196.156,46.958 C 195.701,47.03 195.274,47.381 195.104,47.814 C 194.906,48.247 194.989,48.844 195.301,49.212 C 195.537,49.497 195.811,49.755 196.096,49.974 C 196.003,50.001 195.888,49.996 195.795,50.018 C 195.372,50.083 194.967,50.457 194.873,50.868 C 194.808,51.142 194.868,51.394 194.999,51.624 C 195.043,51.674 195.093,51.717 195.169,51.69 C 195.372,51.608 195.441,51.504 195.639,51.4 L 195.751,51.334 C 196.277,51.158 196.984,51.153 197.182,50.511 C 197.313,50.007 196.995,49.618 196.617,49.332 C 196.332,49.13 196.047,48.866 195.904,48.559 C 195.844,48.335 195.877,48.11 196.069,47.956 C 196.266,47.77 196.6,47.77 196.842,47.863 C 197.297,48.05 197.702,48.346 198.103,48.653 C 198.486,48.938 198.952,49.047 199.435,49.064 C 199.654,49.108 199.852,49.206 200.033,49.349 C 200.329,49.639 200.652,49.875 201.047,49.968 C 201.217,50.007 201.403,50.012 201.579,50.04 C 201.716,50.105 201.814,50.27 201.935,50.358 C 202.456,50.813 203.169,50.807 203.722,51.169 C 204.04,51.416 204.391,51.575 204.813,51.553 C 205.005,51.542 205.181,51.509 205.34,51.438 L 205.351,51.427 C 205.367,51.443 205.334,51.449 205.34,51.465 C 206.469,52.929 208.048,53.757 209.826,53.916 C 211.191,54.026 212.452,53.697 213.543,53.061 C 214.234,52.649 214.865,52.09 215.358,51.427"
       transform="matrix(1.25,0,0,-1.25,0,744.095)"
       style="fill:#fdb827;fill-opacity:1;fill-rule:nonzero;stroke:none"
       id="path2805" />
    <path
       d="M 215.358,51.427 C 215.402,51.421 215.369,51.367 215.391,51.339 L 215.407,51.339 C 215.572,51.46 215.72,51.597 215.917,51.646 C 216.317,51.69 216.679,51.564 216.992,51.356 C 217.145,51.246 217.277,51.109 217.403,50.961 C 217.502,50.857 217.65,50.857 217.776,50.818 C 218.138,50.747 218.467,50.615 218.774,50.418 C 218.988,50.292 219.158,50.062 219.404,50.029 C 219.706,49.979 219.985,49.881 220.249,49.727 C 220.561,49.519 220.863,49.267 221.23,49.195 C 221.998,49.113 222.628,48.68 223.237,48.258 C 223.593,48.055 223.999,47.808 224.432,47.962 C 224.553,48.017 224.651,48.121 224.695,48.241 C 224.733,48.527 224.558,48.746 224.377,48.954 C 224.004,49.382 223.379,49.744 223.445,50.38 C 223.56,50.84 224.064,51.114 224.47,51.246 C 224.695,51.328 224.969,51.301 225.15,51.487 C 225.254,51.553 225.293,51.767 225.452,51.69 C 225.583,51.602 225.594,51.449 225.616,51.306 C 225.676,50.857 225.578,50.407 225.172,50.149 C 224.98,50.029 224.766,49.974 224.547,49.93 C 224.887,49.65 225.21,49.322 225.402,48.943 C 225.512,48.724 225.578,48.527 225.594,48.269 C 225.583,47.792 225.287,47.375 224.876,47.128 C 224.635,46.997 224.361,46.948 224.07,46.953 C 223.96,46.958 223.862,46.98 223.757,46.98 C 223.801,46.756 223.807,46.448 223.752,46.202 C 223.736,46.07 223.648,45.928 223.659,45.774 C 223.719,45.698 223.812,45.692 223.906,45.692 C 224.119,45.687 224.366,45.703 224.476,45.484 C 224.574,45.281 224.624,45.04 224.7,44.837 C 224.733,44.804 224.744,44.727 224.799,44.743 C 224.942,44.875 225.084,45.04 225.293,44.996 C 225.49,44.87 225.682,44.721 225.868,44.579 C 225.918,44.524 225.939,44.458 225.945,44.382 C 226.11,44.316 226.307,44.201 226.362,44.02 C 226.4,43.899 226.378,43.768 226.411,43.652 C 226.466,43.521 226.592,43.362 226.488,43.208 L 226.427,43.154 L 225.819,42.967 C 225.764,42.973 225.715,42.995 225.682,43.044 C 225.358,43.06 224.98,42.962 224.728,43.192 C 224.613,43.285 224.531,43.406 224.448,43.521 C 224.262,43.417 223.982,43.356 223.79,43.482 C 223.39,43.795 222.984,44.091 222.453,44.08 C 222.217,44.025 221.921,43.959 221.69,44.069 C 221.471,44.228 221.208,44.31 221.027,44.541 C 220.775,44.809 220.764,45.127 220.682,45.462 L 220.665,45.478 C 220.325,45.385 219.952,45.429 219.602,45.451 C 219.311,45.462 219.037,45.423 218.774,45.363 C 218.439,45.292 218.072,45.27 217.716,45.281 L 217.546,45.149 C 217.622,45.127 217.71,45.133 217.77,45.078 L 217.836,45.007 C 218.127,44.979 218.45,45.029 218.724,44.952 C 218.79,44.93 218.856,44.87 218.889,44.804 C 218.916,44.727 218.916,44.628 218.872,44.557 C 218.73,44.371 218.653,44.135 218.461,43.981 C 218.406,43.921 218.264,43.992 218.253,43.888 C 218.187,43.603 217.924,43.362 217.644,43.302 C 217.529,43.28 217.409,43.307 217.305,43.34 C 216.975,43.455 216.63,43.548 216.29,43.636 C 216.175,43.669 216.087,43.779 215.989,43.85 C 215.841,43.855 215.643,43.801 215.534,43.932 C 215.457,44.003 215.375,44.168 215.369,44.173 C 215.062,43.79 214.717,43.406 214.327,43.077 C 212.704,41.701 210.276,41.251 208.229,41.991 C 207.1,42.38 206.02,43.148 205.29,44.168 C 205.301,44.217 205.241,44.19 205.247,44.234 C 205.181,44.091 205.082,43.91 204.918,43.855 L 204.413,43.784 C 204.013,43.614 203.607,43.477 203.201,43.329 C 202.96,43.274 202.692,43.324 202.516,43.477 C 202.379,43.598 202.291,43.735 202.209,43.883 C 202.127,43.921 202.012,43.888 201.93,43.91 C 201.847,43.921 201.803,43.987 201.754,44.042 L 201.403,44.623 C 201.37,44.7 201.37,44.815 201.409,44.892 C 201.48,45.023 201.623,45.084 201.76,45.089 C 202.017,45.111 202.308,45.193 202.549,45.084 C 202.664,45.215 202.84,45.193 202.999,45.226 L 203.015,45.231 C 202.938,45.314 202.834,45.368 202.752,45.451 C 202.291,45.341 201.771,45.412 201.326,45.5 C 200.915,45.599 200.559,45.357 200.153,45.418 L 200.027,45.149 C 199.841,44.941 199.824,44.59 199.534,44.448 C 199.331,44.393 199.166,44.256 198.985,44.162 C 198.662,43.992 198.229,44.058 197.889,44.129 C 197.752,44.14 197.642,44.135 197.522,44.086 C 197.401,44.003 197.286,43.877 197.16,43.79 C 196.957,43.702 196.781,43.537 196.551,43.521 C 196.42,43.526 196.299,43.609 196.167,43.57 C 196.003,43.395 195.932,43.104 195.668,43.033 C 195.405,42.962 195.093,43.016 194.84,43.077 C 194.764,43.044 194.709,42.973 194.616,42.995 C 194.44,43.038 194.265,43.088 194.106,43.181 C 194.04,43.241 194.029,43.318 194.013,43.395 C 194.018,43.51 194.1,43.603 194.15,43.702 C 194.172,43.822 194.161,43.97 194.216,44.08 C 194.298,44.261 194.479,44.365 194.643,44.448 C 194.665,44.574 194.742,44.689 194.851,44.749 C 195.065,44.864 195.285,45.122 195.553,44.968 L 195.838,44.721 C 196.091,44.831 196.025,45.089 196.156,45.292 C 196.217,45.429 196.299,45.588 196.469,45.599 C 196.584,45.621 196.705,45.588 196.82,45.599 C 196.984,45.648 197.149,45.714 197.275,45.84 L 197.264,45.944 C 197.099,46.246 197.061,46.613 197.045,46.98 C 196.765,46.953 196.447,46.904 196.156,46.958 C 195.701,47.03 195.274,47.381 195.104,47.814 C 194.906,48.247 194.989,48.844 195.301,49.212 C 195.537,49.497 195.811,49.755 196.096,49.974 C 196.003,50.001 195.888,49.996 195.795,50.018 C 195.372,50.083 194.967,50.457 194.873,50.868 C 194.808,51.142 194.868,51.394 194.999,51.624 C 195.043,51.674 195.093,51.717 195.169,51.69 C 195.372,51.608 195.441,51.504 195.639,51.4 L 195.751,51.334 C 196.277,51.158 196.984,51.153 197.182,50.511 C 197.313,50.007 196.995,49.618 196.617,49.332 C 196.332,49.13 196.047,48.866 195.904,48.559 C 195.844,48.335 195.877,48.11 196.069,47.956 C 196.266,47.77 196.6,47.77 196.842,47.863 C 197.297,48.05 197.702,48.346 198.103,48.653 C 198.486,48.938 198.952,49.047 199.435,49.064 C 199.654,49.108 199.852,49.206 200.033,49.349 C 200.329,49.639 200.652,49.875 201.047,49.968 C 201.217,50.007 201.403,50.012 201.579,50.04 C 201.716,50.105 201.814,50.27 201.935,50.358 C 202.456,50.813 203.169,50.807 203.722,51.169 C 204.04,51.416 204.391,51.575 204.813,51.553 C 205.005,51.542 205.181,51.509 205.34,51.438 L 205.351,51.427 C 205.367,51.443 205.334,51.449 205.34,51.465 C 206.469,52.929 208.048,53.757 209.826,53.916 C 211.191,54.026 212.452,53.697 213.543,53.061 C 214.234,52.649 214.865,52.09 215.358,51.427 z "
       transform="matrix(1.25,0,0,-1.25,0,744.095)"
       style="fill:none;stroke:#fdb827;stroke-width:0.031;stroke-linecap:butt;stroke-linejoin:miter;stroke-miterlimit:3.86400008;stroke-dasharray:none;stroke-opacity:1"
       id="path2807" />
    <path
       d="M 74.65625,0.0625 C 73.842498,0.0625 73.1875,0.725 73.1875,1.53125 C 73.187499,2.345 73.8425,3 74.65625,3 C 75.466248,3.0000001 76.125,2.345 76.125,1.53125 C 76.125004,0.72500002 75.46625,0.0625 74.65625,0.0625 z M 74.40625,0.25 C 74.490315,0.23285644 74.567031,0.25 74.65625,0.25 C 75.366248,0.25 75.9375,0.82125 75.9375,1.53125 C 75.9375,2.24875 75.36625,2.8125 74.65625,2.8125 C 73.942498,2.8125001 73.375,2.24875 73.375,1.53125 C 73.374999,0.91000002 73.817795,0.37000489 74.40625,0.25 z M 62.71875,0.28125 L 62.71875,16.875 L 65.875,16.875 L 65.875,0.28125 L 62.71875,0.28125 z M 68.03125,0.28125 L 68.03125,16.875 L 71.1875,16.875 L 71.1875,0.28125 L 68.03125,0.28125 z M 30.84375,0.3125 L 30.875,8.125 C 30.039999,7.2974996 28.9025,6.8125 27.6875,6.8125 C 25.087499,6.8125 23,9.09375 23,11.9375 C 23,14.7825 25.0875,17.09375 27.6875,17.09375 C 28.916249,17.093749 30.0375,16.5925 30.875,15.75 L 30.875,16.8125 L 34,16.8125 L 34,0.3125 L 30.84375,0.3125 z M 74.125,0.71875 L 74.125,2.34375 L 74.3125,2.34375 L 74.3125,1.59375 L 74.6875,1.59375 L 75.15625,2.34375 L 75.375,2.34375 L 74.90625,1.59375 C 75.198748,1.58625 75.40625,1.47875 75.40625,1.15625 C 75.406253,1.0175 75.34125,0.85125 75.21875,0.78125 C 75.094999,0.70874998 74.95125,0.71875 74.8125,0.71875 L 74.125,0.71875 z M 74.3125,0.84375 L 74.78125,0.84375 C 74.985,0.84374998 75.21875,0.87125 75.21875,1.125 C 75.218753,1.45875 74.855,1.4375 74.625,1.4375 L 74.3125,1.4375 L 74.3125,0.84375 z M 0.0625,1.0625 L 0.0625,16.84375 L 3.40625,16.84375 L 3.40625,3.78125 L 5.125,3.78125 C 6.36125,3.78125 7.3124998,4.7049998 7.3125,5.84375 C 7.3125,6.9825 6.3000001,7.9062498 5.0625,7.90625 L 4.28125,7.90625 L 4.28125,11.6875 L 7.625,16.84375 L 11.5625,16.84375 L 6.9375,10.25 C 9.0125,9.7525 10.5625,7.9087498 10.5625,5.71875 C 10.5625,3.1475 8.4337501,1.0624999 5.8125,1.0625 C 5.7325,1.0625 5.6724998,1.05875 5.59375,1.0625 L 0.0625,1.0625 z M 38.3125,1.1875 L 38.3125,16.84375 L 45.25,16.84375 C 47.912499,16.8 50.0625,14.78 50.0625,12.3125 C 50.0625,10.5175 49.43375,9.235 47.3125,8.25 C 48.17375,7.4462505 48.6875,6.37125 48.6875,5.1875 C 48.687499,4.1162498 48.28375,3.14875 47.5625,2.375 C 46.81125,1.5487499 45.4825,1.1875 43.6875,1.1875 L 38.3125,1.1875 z M 41.65625,3.875 L 43.75,3.875 C 44.672501,3.875 45.4375,4.60875 45.4375,5.53125 C 45.437499,6.4537499 44.6725,7.21875 43.75,7.21875 L 42.65625,7.21875 L 42.65625,10.0625 L 44.6875,10.0625 C 45.80625,10.0625 46.625,10.945 46.625,12.0625 C 46.585001,13.21875 45.9025,14.01875 44.6875,14.09375 L 41.65625,14.09375 L 41.65625,3.875 z M 16.40625,6.65625 C 13.5325,6.6562501 11.21875,8.9975 11.21875,11.90625 C 11.21875,14.815 13.5325,17.1875 16.40625,17.1875 C 18.600001,17.187501 20.33625,16.21125 21.21875,14.65625 L 18.65625,13.46875 C 18.331249,14.1725 17.57375,14.65625 16.6875,14.65625 C 15.503751,14.65625 14.53125,13.77125 14.53125,12.6875 C 14.53125,12.61625 14.52375,12.6625 14.53125,12.59375 L 21.46875,12.59375 C 21.490001,12.37875 21.5025,12.16375 21.5,11.9375 C 21.54875,8.53 19.28,6.65625 16.40625,6.65625 z M 51.15625,7.1875 L 51.15625,13.46875 C 51.15625,15.59375 53.34875,17.3125 56.0625,17.3125 C 58.776251,17.312501 61,15.59375 61,13.46875 L 61,7.1875 L 57.90625,7.21875 L 57.875,12.875 C 57.874999,13.82 57.08625,14.59375 56.09375,14.59375 C 55.100001,14.59375 54.28125,13.82 54.28125,12.875 L 54.3125,7.1875 L 51.15625,7.1875 z M 16.4375,8.84375 C 17.5,8.8437502 18.375,9.71875 18.375,10.78125 L 14.53125,10.78125 C 14.53125,9.7187496 15.375,8.84375 16.4375,8.84375 z M 28.59375,9.375 C 29.87,9.3749998 30.90625,10.51 30.90625,11.90625 C 30.90625,13.3025 29.87,14.40625 28.59375,14.40625 C 27.3175,14.40625 26.28125,13.3025 26.28125,11.90625 C 26.281251,10.51 27.3175,9.375 28.59375,9.375 z M 17.09375,23.125 C 16.99,23.2825 16.955,23.43375 16.96875,23.625 C 17.02375,24.05625 17.33875,24.443751 17.75,24.59375 C 17.99,24.6975 18.285,24.6325 18.53125,24.6875 C 18.6,24.715 18.648749,24.800001 18.65625,24.875 C 18.6425,24.94375 18.655,25.014999 18.59375,25.0625 C 18.21,25.385 17.79,25.665 17.46875,26.0625 C 17.125,26.4325 17.103749,27.0975 17.28125,27.5625 C 17.48,28.0975 18.0275,28.462499 18.5625,28.53125 C 18.9525,28.5925 19.299999,28.4825 19.65625,28.40625 C 19.70375,28.40625 19.73,28.44125 19.75,28.46875 C 19.785,28.78375 19.7125,29.056251 19.78125,29.34375 C 19.84375,29.61125 19.935,29.802499 20.03125,30.0625 C 20.045,30.1525 20.03125,30.243749 19.96875,30.3125 C 19.77,30.46375 19.563749,30.591251 19.34375,30.6875 L 18.8125,30.71875 L 18.71875,30.75 C 18.52,30.98375 18.498751,31.24 18.375,31.5 C 18.21125,31.77375 17.908751,31.903748 17.65625,32.0625 C 17.57375,32.1925 17.4925,32.334999 17.375,32.4375 C 17.28625,32.51875 17.178751,32.5175 17.0625,32.53125 C 16.8775,32.74375 16.842499,33.03875 16.78125,33.3125 L 16.78125,33.34375 C 17.0825,33.37125 17.42375,33.538748 17.71875,33.375 C 17.9725,33.25875 18.0275,32.934999 18.21875,32.75 C 18.37,32.585 18.5725,32.716248 18.75,32.75 C 19.0175,32.76375 19.211249,32.557499 19.4375,32.46875 C 19.595,32.365 19.742501,32.19625 19.90625,32.09375 C 20.2225,31.9425 20.639999,32.0325 20.96875,32.09375 C 21.22875,32.1625 21.523751,32.1025 21.75,32 C 21.9625,31.86875 22.16625,31.711251 22.40625,31.65625 C 22.61875,31.54625 22.722499,31.323751 22.8125,31.125 C 22.88,30.94125 23.044999,30.774999 23.03125,30.5625 C 22.97625,30.515 22.926251,30.43125 22.84375,30.4375 C 22.74125,30.58125 22.647501,30.737499 22.53125,30.875 C 22.07875,31.49125 21.3825,31.59375 20.65625,31.59375 C 19.90875,31.56625 19.2325,31.792502 18.71875,32.375 C 18.685,32.395 18.621249,32.402499 18.59375,32.375 C 18.57375,32.29375 18.653751,32.217499 18.6875,32.15625 C 19.14625,31.505 19.87125,31.357499 20.625,31.34375 C 21.03625,31.31625 21.399999,31.272499 21.75,31.09375 C 22.14,30.895 22.428751,30.477501 22.59375,30.09375 C 22.6825,29.6625 22.702501,29.192499 22.8125,28.78125 C 22.82625,28.74 22.87125,28.73625 22.90625,28.75 C 22.9475,28.75625 22.999999,28.765 23,28.8125 C 22.925,29.2375 22.866249,29.743751 23.03125,30.15625 C 23.36,30.5875 23.961251,30.30125 24.40625,30.28125 C 24.8725,30.24 25.272501,30.410001 25.71875,30.4375 C 25.9375,30.43 26.20375,30.481251 26.375,30.34375 C 26.4225,30.26875 26.3575,30.207501 26.34375,30.125 C 26.33,30.00125 26.2575,29.82125 26.375,29.71875 C 26.40875,29.69125 26.441251,29.716249 26.46875,29.75 C 26.53125,29.9225 26.578749,30.1 26.6875,30.25 C 26.9075,30.53125 27.228749,30.748749 27.53125,30.90625 C 27.81875,31.10375 28.0425,31.36875 28.0625,31.71875 C 28.0625,31.89625 27.918751,32.0425 27.78125,32.125 C 27.54875,32.24125 27.275,32.339998 27,32.3125 C 26.6375,32.13375 26.5525,31.748751 26.3125,31.46875 C 26.19,31.33125 25.9975,31.29875 25.8125,31.3125 C 25.61375,31.3325 25.4275,31.345001 25.25,31.40625 C 25.20125,31.4475 25.181251,31.50125 25.1875,31.5625 C 25.31125,31.78875 25.45625,31.9925 25.59375,32.21875 C 25.75125,32.315 25.9575,32.172501 26.09375,32.34375 C 26.21,32.5225 26.291251,32.7375 26.46875,32.875 C 26.64,33.025 26.89875,33.096249 27.125,33 C 27.63125,32.8425 28.1525,32.689999 28.625,32.4375 L 28.78125,32.4375 C 28.97375,32.41625 29.174999,32.424998 29.3125,32.28125 C 29.4625,32.0625 29.6025,31.8575 29.71875,31.625 C 29.835,31.4675 29.76625,31.2025 29.71875,31.03125 C 29.48625,30.7425 29.34125,30.422499 29.21875,30.09375 C 29.1025,30.05875 29.005,29.9925 28.875,30 C 28.81375,30.0275 28.7225,30.024999 28.6875,30.09375 L 29.25,31.15625 C 29.285,31.23875 29.302499,31.358751 29.28125,31.46875 C 29.20625,31.695 29.09125,31.928748 28.90625,32.09375 C 28.87125,32.11375 28.840001,32.110002 28.8125,32.0625 C 28.875,31.83 28.982499,31.58 28.96875,31.3125 L 28.4375,30.375 C 28.37625,30.245 28.273749,30.12 28.28125,29.96875 C 28.28125,29.9 28.35125,29.839999 28.40625,29.8125 C 28.63875,29.73625 28.914999,29.747501 29.09375,29.5625 C 29.32625,29.2 29.47,28.87 29.53125,28.4375 C 29.545,28.41 29.552501,28.34375 29.59375,28.34375 C 29.635,28.33 29.63625,28.38625 29.65625,28.40625 C 29.725,28.88 29.617501,29.381249 29.34375,29.75 C 29.33,29.79875 29.32125,29.840001 29.375,29.875 C 29.63625,29.95625 29.906251,29.867499 30.125,29.75 C 30.40625,29.7575 30.65375,29.6975 30.90625,29.65625 C 30.93375,29.67 30.96875,29.69125 30.96875,29.71875 C 30.7975,29.91125 30.705001,30.128751 30.65625,30.375 C 30.45125,30.5875 30.14625,30.786251 30.125,31.09375 C 30.16,31.245 30.286251,31.079999 30.375,31.09375 C 30.41625,31.1 30.46875,31.146251 30.46875,31.1875 L 30.25,31.5 C 30.14,31.67875 30.28125,31.860002 30.28125,32.03125 C 30.32875,32.16875 30.481251,32.249999 30.625,32.25 C 30.93375,32.23625 31.225001,32.126248 31.5,32.03125 C 31.80125,31.9 32.170001,31.913751 32.5,31.96875 C 32.82125,31.9475 33.041251,31.71125 33.28125,31.5 C 33.41125,31.5 33.535,31.591249 33.625,31.6875 C 33.995,32.085 34.488748,32.263749 35.03125,32.25 L 35.0625,32.21875 C 35.09625,32.18375 35.103748,32.121252 35.0625,32.09375 L 34.71875,31.9375 C 34.49125,31.79375 34.231248,31.597499 34.15625,31.34375 C 34.0875,31.1175 33.948749,30.876251 33.8125,30.65625 C 33.76375,30.54625 33.673748,30.453751 33.625,30.34375 C 33.63875,30.33 33.635,30.306251 33.65625,30.3125 C 34.0125,30.43625 34.242498,30.778749 34.40625,31.09375 C 34.6675,31.4575 35.038748,31.768749 35.53125,31.6875 L 35.5625,31.65625 C 35.58375,31.62875 35.57625,31.614999 35.5625,31.59375 L 35.3125,31.46875 C 34.90125,31.22875 34.755,30.762501 34.5,30.40625 C 34.41125,30.27625 34.23875,30.192499 34.15625,30.0625 C 33.86125,29.26 33.606249,28.45 33.53125,27.53125 C 33.46875,27.305 33.436248,27.0875 33.3125,26.875 C 32.9425,26.27125 32.466251,25.711249 32,25.15625 C 31.95875,25.115 31.86375,25.086249 31.84375,25.03125 L 30.21875,23.6875 C 30.02,23.5375 29.820001,23.446251 29.59375,23.34375 C 29.25125,23.21375 28.7725,23.230001 28.4375,23.375 C 28.0875,23.56 27.77625,23.81375 27.40625,23.9375 C 26.87125,24.1775 26.2725,24.245 25.8125,24.65625 C 25.54625,24.89 25.303749,25.248751 24.90625,25.1875 C 24.46,25.1675 24.085,25.31875 23.75,25.59375 C 23.4475,25.8675 23.14,26.205 22.75,26.28125 C 22.4075,26.425 22.005,26.33875 21.65625,26.46875 C 21.1,26.60625 20.661251,27.071249 20.1875,27.40625 C 19.715,27.68125 19.244999,27.95125 18.65625,27.9375 C 18.2725,27.91 17.90375,27.651251 17.78125,27.28125 C 17.665,26.85625 17.79,26.4125 18.125,26.125 C 18.475,25.70625 19.038749,25.48 19.3125,25 C 19.4575,24.74625 19.441251,24.333751 19.25,24.09375 C 18.88625,23.7175 18.347501,23.678749 17.875,23.5625 C 17.57375,23.48 17.359999,23.26875 17.09375,23.125 z M 43.15625,23.15625 C 42.95125,23.17 42.7825,23.3 42.625,23.4375 C 41.5775,24.355 40.364999,24.98375 39.40625,26.03125 C 38.76125,26.69625 38.615001,27.52875 38.375,28.34375 C 38.0325,29.5775 37.865,30.927501 36.625,31.6875 C 36.60375,31.72125 36.615,31.785 36.65625,31.8125 C 36.985,31.89375 37.312501,31.78875 37.53125,31.5625 C 37.74375,31.2275 37.962501,30.902501 38.25,30.59375 L 38.3125,30.5625 C 38.3475,30.56875 38.388749,30.577501 38.375,30.625 C 38.2925,30.9 38.05125,31.099999 37.96875,31.375 C 37.85875,31.70375 37.548751,31.954999 37.28125,32.1875 L 37.28125,32.21875 C 37.28125,32.25375 37.309999,32.304998 37.34375,32.3125 C 37.9475,32.33875 38.37625,31.903751 38.78125,31.5 C 38.8225,31.45875 38.883748,31.455 38.9375,31.46875 C 39.11625,31.60625 39.26625,31.82625 39.5,31.875 C 39.74625,31.84 40.019998,31.7925 40.28125,31.8125 C 40.64375,31.9225 40.98,32.065001 41.34375,32.1875 C 41.52875,32.18125 41.685001,32.025 41.78125,31.875 C 41.85625,31.69625 41.736251,31.516249 41.75,31.34375 C 41.83875,31.29 41.934999,31.339999 42.03125,31.3125 C 42.0725,31.28625 42.124998,31.235001 42.125,31.1875 C 42.05625,30.8725 41.777499,30.638751 41.6875,30.34375 C 41.55125,29.9675 41.081249,29.747499 41,29.34375 C 41.02,29.31625 41.05875,29.284999 41.09375,29.3125 C 41.3875,29.52375 41.637501,29.788751 42,29.84375 C 42.275,29.87125 42.569999,29.926251 42.84375,29.90625 C 42.885,29.8925 42.92,29.828749 42.90625,29.78125 C 42.79,29.53375 42.692501,29.298751 42.625,29.03125 C 42.52875,28.69625 42.452501,28.21375 42.5625,27.84375 C 42.5825,27.81625 42.61625,27.76875 42.65625,27.78125 C 42.71125,27.795 42.743751,27.85875 42.75,27.90625 C 42.79125,28.48875 42.80625,29.04125 43.15625,29.5 C 43.30625,29.74 43.564999,29.78375 43.75,29.96875 C 43.81875,30.065 43.859999,30.202499 43.8125,30.3125 L 43.375,30.9375 C 43.27875,31.07375 43.189999,31.225001 43.15625,31.375 C 43.12125,31.54625 43.142499,31.711251 43.15625,31.875 C 43.12875,31.88875 43.121251,31.8575 43.09375,31.84375 C 42.98375,31.6175 42.852501,31.32875 42.96875,31.0625 L 43.5,30.25 L 43.53125,30.1875 C 43.415,30.12625 43.279998,30.058749 43.15625,30.03125 C 43.095,30.05875 43.041251,30.13375 43,30.1875 L 42.5,31.09375 C 42.465,31.20375 42.410002,31.289999 42.4375,31.40625 C 42.465,31.5425 42.499999,31.69625 42.5625,31.8125 C 42.60375,32.005 42.661249,32.141248 42.75,32.3125 C 42.88,32.45625 43.055,32.302502 43.21875,32.34375 C 43.38375,32.385 43.428749,32.608749 43.59375,32.65625 C 43.96375,32.78 44.379998,32.824999 44.75,32.96875 C 44.9425,33.03 45.203751,33.127501 45.375,32.96875 C 45.615,32.83875 45.677499,32.58375 45.71875,32.34375 C 45.79375,32.24125 45.952498,32.283751 46.0625,32.25 C 46.2675,32.1125 46.317499,31.841249 46.46875,31.65625 L 46.5,31.5625 C 46.48,31.50125 46.430001,31.488751 46.375,31.46875 L 45.6875,31.46875 C 45.36625,31.51 45.324999,31.843752 45.1875,32.0625 C 45.1125,32.2 44.97,32.263749 44.8125,32.25 C 44.48375,32.16 44.056251,32.10625 43.90625,31.75 C 43.885,31.66125 43.9,31.561251 43.96875,31.5 C 44.14,31.30125 44.34875,31.071251 44.5625,30.90625 C 44.86375,30.845 45.15375,30.611249 45.3125,30.34375 C 45.39375,30.2275 45.393748,30.05875 45.53125,29.96875 C 45.5725,29.9625 45.597499,29.989999 45.625,30.03125 C 45.6875,30.23 45.593748,30.391249 45.53125,30.5625 C 46.27875,30.63875 46.898748,30.347501 47.625,30.375 C 47.93375,30.375 48.197502,30.426251 48.5,30.40625 C 48.80125,30.3925 49.122502,30.28375 49.21875,29.96875 C 49.355,29.56375 49.256252,29.102499 49.1875,28.71875 L 49.21875,28.65625 C 49.26625,28.62875 49.31,28.66 49.34375,28.6875 C 49.47375,29.05125 49.569999,29.508751 49.625,29.90625 C 49.67875,30.255 49.83875,30.548749 50.03125,30.84375 C 50.38,31.365 50.983752,31.5675 51.59375,31.4375 C 52.33375,31.3825 52.986251,31.706248 53.4375,32.28125 L 53.4375,32.3125 C 53.42375,32.33875 53.378752,32.382499 53.34375,32.375 C 52.95375,32.07375 52.562502,31.748751 52.0625,31.6875 C 51.535,31.59125 51.087501,31.823749 50.59375,31.625 C 50.0525,31.4475 49.61875,30.900001 49.40625,30.40625 L 49.375,30.40625 C 49.33375,30.4125 49.287502,30.45875 49.28125,30.5 L 49.34375,30.90625 C 49.42625,31.24875 49.53625,31.655 49.90625,31.8125 C 50.19375,31.98375 50.487501,32.252501 50.84375,32.15625 C 51.4675,32.02 52.082502,32.18125 52.5625,32.53125 C 52.72,32.62 52.859999,32.782502 53.03125,32.84375 C 53.21625,32.91875 53.442499,32.873751 53.59375,32.75 C 53.9425,32.63375 54.009999,33.092501 54.25,33.25 C 54.4625,33.455 54.843749,33.375 55.125,33.375 L 55.1875,33.34375 C 55.15375,33.0625 55.077498,32.84125 54.96875,32.59375 C 54.61875,32.615 54.424999,32.21875 54.21875,32 C 54.0475,31.80125 53.712499,31.701249 53.71875,31.40625 C 53.6575,31.29 53.64875,31.0875 53.59375,30.9375 C 53.54625,30.81375 53.507498,30.652499 53.34375,30.625 C 53.04875,30.57625 52.684999,30.648751 52.5,30.375 C 52.3075,30.16875 52.527498,29.949999 52.5625,29.75 C 52.64375,29.4975 52.635002,29.135 52.59375,28.875 C 52.5875,28.72375 52.503748,28.61875 52.53125,28.46875 C 52.6,28.33875 52.741252,28.423749 52.84375,28.4375 C 53.2275,28.5475 53.6825,28.495 54.03125,28.34375 C 54.51125,28.11125 54.895,27.6175 54.875,27.0625 C 54.80625,26.3425 54.305001,25.7475 53.75,25.28125 C 53.6475,25.19125 53.502499,25.09875 53.46875,24.96875 C 53.455,24.6875 53.780001,24.85 53.9375,24.78125 C 54.13,24.7325 54.311249,24.672499 54.46875,24.5625 C 54.8875,24.28125 54.98875,23.792499 54.90625,23.3125 C 54.8925,23.27125 54.905001,23.21875 54.84375,23.21875 C 54.76875,23.28 54.688751,23.35125 54.59375,23.40625 C 54.32625,23.56375 53.96875,23.55 53.6875,23.6875 C 53.3375,23.8375 52.901249,24.04125 52.75,24.4375 C 52.70875,24.63625 52.755,24.83625 52.84375,25 C 53.26875,25.6725 54.168749,26.12875 54.3125,26.9375 C 54.3675,27.26625 54.191252,27.5025 53.9375,27.6875 C 53.55375,27.92 52.977502,27.83 52.59375,27.625 C 51.85375,27.255 51.232501,26.6275 50.4375,26.375 C 49.93625,26.14875 49.320001,26.22375 48.875,25.875 C 48.53875,25.655 48.219999,25.34625 47.84375,25.25 C 47.5825,25.16125 47.270001,25.1925 47.03125,25.0625 C 46.78375,24.84375 46.537499,24.64375 46.25,24.5 C 45.8525,24.30125 45.4075,24.189999 44.96875,24.09375 C 44.70875,24.0325 44.618749,23.737501 44.40625,23.59375 C 44.0425,23.30625 43.649998,23.115 43.15625,23.15625 z "
       transform="translate(226.84625,656.655)"
       style="fill:#ed1846;fill-opacity:1;fill-rule:nonzero;stroke:none"
       id="path2809" />
    <path
       d="M 195.789,51.092 C 196.167,50.999 196.584,50.988 196.875,50.687 C 197.028,50.495 197.045,50.166 196.929,49.963 C 196.71,49.579 196.266,49.382 195.986,49.047 C 195.718,48.817 195.614,48.466 195.707,48.126 C 195.805,47.83 196.102,47.616 196.409,47.594 C 196.88,47.583 197.242,47.819 197.62,48.039 C 197.999,48.307 198.349,48.658 198.794,48.768 C 199.073,48.872 199.408,48.817 199.682,48.932 C 199.994,48.993 200.224,49.25 200.466,49.469 C 200.734,49.689 201.052,49.82 201.409,49.804 C 201.727,49.755 201.908,50.045 202.121,50.232 C 202.489,50.561 202.971,50.599 203.399,50.791 C 203.695,50.89 203.947,51.103 204.227,51.251 C 204.495,51.367 204.868,51.388 205.142,51.284 C 205.323,51.202 205.504,51.125 205.663,51.005 L 206.963,49.925 C 206.979,49.881 207.034,49.853 207.067,49.82 C 207.44,49.376 207.823,48.938 208.119,48.455 C 208.218,48.285 208.256,48.099 208.306,47.918 C 208.366,47.183 208.569,46.542 208.805,45.9 C 208.871,45.796 208.997,45.73 209.068,45.626 C 209.272,45.341 209.404,44.979 209.733,44.787 L 209.93,44.689 C 209.941,44.672 209.947,44.645 209.93,44.623 L 209.897,44.595 C 209.503,44.53 209.2,44.776 208.991,45.067 C 208.86,45.319 208.69,45.599 208.405,45.698 C 208.388,45.703 208.377,45.687 208.366,45.676 C 208.405,45.588 208.492,45.517 208.531,45.429 C 208.64,45.253 208.739,45.056 208.794,44.875 C 208.854,44.672 209.079,44.519 209.261,44.404 L 209.519,44.272 C 209.552,44.25 209.563,44.201 209.536,44.173 L 209.497,44.151 C 209.063,44.14 208.679,44.277 208.383,44.595 C 208.311,44.672 208.218,44.743 208.114,44.743 C 207.922,44.574 207.73,44.404 207.473,44.387 C 207.209,44.431 206.908,44.437 206.667,44.332 C 206.447,44.256 206.228,44.162 205.981,44.151 C 205.866,44.151 205.734,44.206 205.696,44.316 C 205.696,44.453 205.592,44.617 205.68,44.76 L 205.844,45.001 C 205.844,45.034 205.822,45.062 205.789,45.067 C 205.718,45.078 205.614,44.963 205.586,45.084 C 205.603,45.33 205.839,45.478 206.003,45.648 C 206.042,45.845 206.118,46.015 206.255,46.169 C 206.255,46.191 206.233,46.213 206.211,46.224 C 206.009,46.191 205.8,46.136 205.575,46.142 C 205.4,46.048 205.181,45.983 204.972,46.048 C 204.929,46.076 204.945,46.125 204.956,46.164 C 205.175,46.459 205.252,46.843 205.197,47.222 C 205.181,47.238 205.175,47.277 205.142,47.266 C 205.109,47.266 205.104,47.233 205.093,47.211 C 205.044,46.865 204.934,46.58 204.748,46.29 C 204.605,46.142 204.38,46.153 204.194,46.092 C 204.15,46.07 204.101,46.032 204.101,45.977 C 204.095,45.856 204.183,45.763 204.232,45.659 L 204.654,44.897 C 204.665,44.683 204.578,44.48 204.528,44.294 C 204.55,44.256 204.583,44.272 204.611,44.288 C 204.759,44.42 204.852,44.595 204.912,44.776 C 204.929,44.864 204.896,44.957 204.868,45.023 L 204.435,45.878 C 204.463,45.933 204.534,45.922 204.583,45.944 C 204.687,45.95 204.77,45.895 204.863,45.867 C 204.961,45.604 205.066,45.347 205.252,45.116 C 205.29,44.979 205.334,44.787 205.241,44.661 C 205.148,44.475 205.049,44.31 204.929,44.135 C 204.819,44.02 204.649,44.031 204.495,44.014 L 204.369,44.014 C 203.991,43.812 203.585,43.68 203.18,43.554 C 202.999,43.477 202.79,43.532 202.653,43.652 C 202.511,43.762 202.45,43.932 202.357,44.075 C 202.248,44.212 202.072,44.091 201.946,44.168 C 201.836,44.349 201.727,44.524 201.628,44.705 C 201.623,44.754 201.633,44.804 201.672,44.837 C 201.814,44.886 201.973,44.892 202.132,44.908 C 202.28,44.919 202.429,44.897 202.527,44.787 C 202.719,44.563 202.796,44.256 203.086,44.113 C 203.306,44.091 203.509,44.168 203.695,44.261 C 203.805,44.327 203.936,44.426 203.936,44.568 C 203.92,44.848 203.728,45.073 203.498,45.231 C 203.256,45.357 202.999,45.533 202.823,45.758 C 202.736,45.878 202.714,46.026 202.664,46.164 C 202.642,46.191 202.593,46.202 202.566,46.18 C 202.472,46.098 202.544,45.961 202.555,45.862 C 202.566,45.796 202.609,45.725 202.571,45.665 C 202.434,45.555 202.231,45.61 202.056,45.604 C 201.699,45.626 201.376,45.763 201.003,45.73 C 200.647,45.714 200.175,45.478 199.912,45.823 C 199.78,46.153 199.819,46.553 199.879,46.893 C 199.879,46.931 199.841,46.953 199.808,46.958 C 199.78,46.969 199.742,46.953 199.731,46.92 C 199.643,46.591 199.616,46.218 199.545,45.873 C 199.413,45.566 199.199,45.248 198.887,45.089 C 198.607,44.946 198.295,44.892 197.966,44.87 C 197.363,44.859 196.792,44.738 196.425,44.217 C 196.398,44.168 196.343,44.129 196.359,44.064 C 196.381,44.042 196.42,44.031 196.447,44.047 C 196.858,44.513 197.395,44.694 197.993,44.672 C 198.574,44.672 199.144,44.771 199.506,45.264 C 199.599,45.374 199.66,45.495 199.742,45.61 C 199.808,45.615 199.857,45.533 199.901,45.495 C 199.912,45.325 199.769,45.209 199.715,45.062 C 199.643,44.903 199.561,44.711 199.391,44.623 C 199.199,44.579 199.04,44.448 198.87,44.343 C 198.689,44.261 198.47,44.228 198.262,44.283 C 197.999,44.332 197.648,44.398 197.395,44.277 C 197.264,44.195 197.16,44.053 197.034,43.97 C 196.853,43.899 196.699,43.746 196.485,43.757 C 196.343,43.784 196.162,43.883 196.041,43.751 C 195.888,43.603 195.844,43.356 195.641,43.263 C 195.405,43.132 195.153,43.263 194.912,43.285 L 194.901,43.296 C 194.95,43.515 194.983,43.751 195.131,43.921 C 195.224,43.932 195.312,43.949 195.383,44.014 C 195.477,44.096 195.548,44.206 195.614,44.31 C 195.816,44.437 196.058,44.541 196.189,44.76 C 196.288,44.968 196.293,45.16 196.452,45.347 L 196.535,45.385 L 196.962,45.412 C 197.138,45.489 197.302,45.571 197.461,45.692 C 197.511,45.747 197.522,45.823 197.511,45.895 C 197.434,46.103 197.363,46.251 197.313,46.465 C 197.258,46.695 197.297,46.92 197.269,47.172 C 197.253,47.194 197.236,47.233 197.198,47.233 C 196.913,47.172 196.633,47.09 196.321,47.139 C 195.893,47.194 195.449,47.474 195.29,47.902 C 195.148,48.274 195.18,48.795 195.455,49.091 C 195.712,49.409 196.036,49.656 196.343,49.914 C 196.392,49.952 196.398,50.007 196.409,50.062 C 196.403,50.122 196.348,50.177 196.293,50.199 C 196.096,50.243 195.877,50.182 195.685,50.265 C 195.356,50.385 195.093,50.698 195.049,51.043 C 195.038,51.196 195.065,51.334 195.148,51.46 C 195.361,51.345 195.548,51.158 195.789,51.092 z "
       transform="matrix(1.25,0,0,-1.25,0,744.095)"
       style="fill:none;stroke:#ed1846;stroke-width:0.031;stroke-linecap:butt;stroke-linejoin:miter;stroke-miterlimit:3.86400008;stroke-dasharray:none;stroke-opacity:1"
       id="path2811" />
    <path
       d="M 217.003,51.076 C 217.173,50.961 217.25,50.73 217.458,50.681 C 217.809,50.604 218.16,50.522 218.478,50.363 C 218.708,50.248 218.916,50.083 219.114,49.908 C 219.305,49.804 219.541,49.815 219.75,49.744 C 220.051,49.667 220.298,49.437 220.567,49.261 C 220.923,48.982 221.416,49.025 221.817,48.844 C 222.453,48.642 222.968,48.148 223.56,47.852 C 223.867,47.688 224.328,47.622 224.635,47.808 C 224.838,47.956 224.969,48.148 224.925,48.411 C 224.81,49.058 224.092,49.409 223.752,49.947 C 223.681,50.078 223.642,50.243 223.675,50.402 C 223.796,50.719 224.141,50.89 224.421,51.01 C 224.646,51.12 224.931,51.098 225.145,51.224 C 225.221,51.268 225.282,51.339 225.342,51.388 C 225.391,51.388 225.391,51.339 225.402,51.306 C 225.468,50.922 225.397,50.528 225.062,50.303 C 224.936,50.215 224.783,50.177 224.629,50.138 C 224.503,50.083 224.251,50.193 224.262,49.968 C 224.289,49.864 224.394,49.788 224.476,49.716 C 224.92,49.343 225.331,48.872 225.386,48.296 C 225.402,47.852 225.095,47.463 224.711,47.277 C 224.432,47.156 224.07,47.112 223.763,47.2 C 223.681,47.211 223.549,47.287 223.494,47.183 C 223.472,47.063 223.555,46.964 223.56,46.843 C 223.593,46.635 223.587,46.366 223.522,46.164 C 223.494,46.004 223.324,45.813 223.478,45.648 C 223.626,45.429 223.911,45.495 224.147,45.456 C 224.278,45.434 224.317,45.292 224.355,45.193 C 224.399,45.073 224.41,44.924 224.459,44.831 C 224.454,44.595 224.722,44.502 224.859,44.343 C 225.024,44.168 225.161,43.866 225.441,43.883 C 225.528,43.685 225.589,43.51 225.616,43.285 L 225.578,43.258 C 225.353,43.258 225.057,43.192 224.887,43.356 C 224.695,43.482 224.629,43.833 224.35,43.74 C 224.229,43.641 224.048,43.609 223.9,43.669 C 223.763,43.718 223.664,43.85 223.538,43.921 C 223.154,44.201 222.65,44.343 222.151,44.234 C 221.866,44.157 221.641,44.354 221.411,44.491 C 221.115,44.617 221.027,44.941 220.961,45.215 L 220.907,45.555 C 220.912,45.588 220.934,45.621 220.967,45.626 L 221.011,45.626 C 221.181,45.231 221.515,44.787 221.948,44.645 C 222.343,44.486 222.716,44.689 223.138,44.612 C 223.538,44.563 223.851,44.305 224.163,44.064 C 224.191,44.058 224.212,44.086 224.223,44.107 L 224.223,44.135 C 223.862,44.595 223.352,44.837 222.76,44.793 C 222.272,44.689 221.778,44.853 221.499,45.27 C 221.345,45.506 221.224,45.758 221.181,46.037 C 221.137,46.355 221.065,46.706 220.961,46.997 C 220.934,47.019 220.901,47.046 220.863,47.024 L 220.835,46.975 C 220.89,46.668 220.972,46.301 220.863,45.977 C 220.786,45.725 220.523,45.626 220.282,45.615 C 220.04,45.599 219.816,45.648 219.569,45.648 C 218.988,45.67 218.489,45.434 217.891,45.495 C 217.941,45.632 218.034,45.78 217.984,45.939 C 217.962,45.972 217.924,45.977 217.891,45.972 C 217.781,45.9 217.792,45.763 217.727,45.67 C 217.6,45.456 217.365,45.275 217.124,45.226 C 216.953,45.094 216.789,44.913 216.652,44.754 C 216.597,44.705 216.597,44.617 216.614,44.546 C 216.734,44.261 217.058,44.223 217.321,44.151 C 217.447,44.14 217.568,44.184 217.628,44.294 C 217.738,44.469 217.76,44.754 218.017,44.787 L 218.576,44.787 C 218.62,44.771 218.664,44.743 218.68,44.694 L 218.659,44.617 C 218.538,44.469 218.483,44.272 218.319,44.162 C 218.231,44.135 218.11,44.168 218.05,44.086 C 218.017,43.894 217.968,43.691 217.776,43.587 C 217.639,43.46 217.42,43.521 217.266,43.57 C 216.97,43.685 216.652,43.74 216.356,43.839 C 216.224,43.877 216.175,44.036 216.043,44.069 C 215.912,44.102 215.769,43.998 215.665,44.113 C 215.594,44.25 215.567,44.354 215.534,44.508 C 215.484,44.601 215.457,44.711 215.435,44.82 C 215.413,44.913 215.44,44.979 215.468,45.067 L 215.879,45.813 C 215.912,45.856 215.945,45.906 215.994,45.928 C 216.093,45.906 216.197,45.856 216.29,45.807 L 216.274,45.758 L 215.851,45.105 C 215.758,44.892 215.857,44.661 215.945,44.48 C 215.967,44.469 215.978,44.437 216,44.448 C 215.989,44.579 215.972,44.711 216,44.848 C 216.027,44.968 216.104,45.089 216.181,45.198 L 216.515,45.692 C 216.553,45.78 216.542,45.906 216.487,45.983 C 216.339,46.131 216.131,46.169 216.011,46.361 C 215.731,46.728 215.709,47.156 215.676,47.622 C 215.671,47.66 215.643,47.71 215.599,47.721 C 215.567,47.731 215.539,47.693 215.523,47.671 C 215.435,47.375 215.49,47.002 215.567,46.734 C 215.621,46.52 215.709,46.323 215.802,46.125 C 215.813,46.087 215.786,46.048 215.753,46.037 C 215.534,46.021 215.309,46.043 215.089,46.065 C 214.799,46.109 214.59,46.334 214.355,46.503 C 214.327,46.525 214.3,46.492 214.284,46.47 C 214.349,46.147 214.706,45.966 214.815,45.665 C 214.887,45.429 215.111,45.242 215.166,44.99 C 215.166,44.952 215.139,44.913 215.106,44.892 C 215.029,44.87 214.947,44.924 214.876,44.881 C 214.865,44.743 214.952,44.601 214.892,44.458 C 214.815,44.338 214.706,44.195 214.558,44.19 C 214.267,44.288 213.987,44.409 213.697,44.497 C 213.488,44.513 213.28,44.486 213.083,44.458 C 212.896,44.497 212.765,44.661 212.622,44.771 C 212.579,44.782 212.535,44.787 212.502,44.754 C 212.178,44.431 211.833,44.086 211.35,44.107 C 211.323,44.113 211.296,44.14 211.296,44.168 L 211.301,44.201 C 211.515,44.387 211.767,44.59 211.855,44.853 C 211.921,45.073 212.118,45.231 212.184,45.451 C 212.195,45.489 212.162,45.506 212.134,45.511 L 212.079,45.484 C 211.849,45.237 211.668,44.979 211.498,44.711 C 211.323,44.53 211.065,44.426 210.802,44.491 C 210.769,44.513 210.769,44.563 210.786,44.59 C 211.778,45.198 211.893,46.284 212.167,47.271 C 212.359,47.923 212.496,48.598 213.012,49.13 C 213.779,49.968 214.739,50.473 215.577,51.207 C 215.703,51.317 215.83,51.427 215.994,51.438 C 216.389,51.471 216.712,51.306 217.003,51.076 z "
       transform="matrix(1.25,0,0,-1.25,0,744.095)"
       style="fill:none;stroke:#ed1846;stroke-width:0.031;stroke-linecap:butt;stroke-linejoin:miter;stroke-miterlimit:3.86400008;stroke-dasharray:none;stroke-opacity:1"
       id="path2815" />
    <path
       d="M 216.093,50.051 C 216.137,49.979 216.087,49.925 216.054,49.87 C 215.83,49.656 215.556,49.437 215.391,49.179 C 215.331,49.097 215.287,49.003 215.243,48.91 C 215.237,48.899 215.221,48.894 215.205,48.899 C 215.161,49.031 215.215,49.168 215.248,49.294 C 215.364,49.601 215.621,49.886 215.884,50.083 C 215.945,50.122 216.06,50.133 216.093,50.051"
       transform="matrix(1.25,0,0,-1.25,0,744.095)"
       style="fill:#fdb827;fill-opacity:1;fill-rule:nonzero;stroke:none"
       id="path2817" />
    <path
       d="M 216.093,50.051 C 216.137,49.979 216.087,49.925 216.054,49.87 C 215.83,49.656 215.556,49.437 215.391,49.179 C 215.331,49.097 215.287,49.003 215.243,48.91 C 215.237,48.899 215.221,48.894 215.205,48.899 C 215.161,49.031 215.215,49.168 215.248,49.294 C 215.364,49.601 215.621,49.886 215.884,50.083 C 215.945,50.122 216.06,50.133 216.093,50.051 z "
       transform="matrix(1.25,0,0,-1.25,0,744.095)"
       style="fill:none;stroke:#fdb827;stroke-width:0.031;stroke-linecap:butt;stroke-linejoin:miter;stroke-miterlimit:3.86400008;stroke-dasharray:none;stroke-opacity:1"
       id="path2819" />
    <path
       d="M 205.219,49.398 C 205.323,49.157 205.323,48.833 205.252,48.576 C 205.241,48.565 205.225,48.559 205.208,48.57 C 205.164,48.795 205.115,49.025 205.027,49.239 C 204.978,49.365 204.813,49.469 204.89,49.618 C 204.923,49.65 204.983,49.656 205.027,49.639 C 205.115,49.579 205.17,49.486 205.219,49.398"
       transform="matrix(1.25,0,0,-1.25,0,744.095)"
       style="fill:#fdb827;fill-opacity:1;fill-rule:nonzero;stroke:none"
       id="path2821" />
    <path
       d="M 205.219,49.398 C 205.323,49.157 205.323,48.833 205.252,48.576 C 205.241,48.565 205.225,48.559 205.208,48.57 C 205.164,48.795 205.115,49.025 205.027,49.239 C 204.978,49.365 204.813,49.469 204.89,49.618 C 204.923,49.65 204.983,49.656 205.027,49.639 C 205.115,49.579 205.17,49.486 205.219,49.398 z "
       transform="matrix(1.25,0,0,-1.25,0,744.095)"
       style="fill:none;stroke:#fdb827;stroke-width:0.031;stroke-linecap:butt;stroke-linejoin:miter;stroke-miterlimit:3.86400008;stroke-dasharray:none;stroke-opacity:1"
       id="path2823" />
    <path
       d="M 207.785,47.156 C 207.966,46.953 208.087,46.728 208.026,46.448 C 207.999,46.394 208.004,46.312 207.933,46.295 C 207.9,46.284 207.873,46.306 207.873,46.339 C 207.862,46.487 207.862,46.641 207.774,46.761 C 207.675,46.865 207.571,47.046 207.412,47.046 C 207.303,47.013 207.22,46.887 207.155,46.8 C 207.149,46.789 207.133,46.789 207.122,46.794 C 207.061,46.948 207.182,47.079 207.231,47.211 C 207.324,47.304 207.303,47.578 207.511,47.49 C 207.653,47.414 207.681,47.26 207.785,47.156"
       transform="matrix(1.25,0,0,-1.25,0,744.095)"
       style="fill:#fdb827;fill-opacity:1;fill-rule:nonzero;stroke:none"
       id="path2825" />
    <path
       d="M 207.785,47.156 C 207.966,46.953 208.087,46.728 208.026,46.448 C 207.999,46.394 208.004,46.312 207.933,46.295 C 207.9,46.284 207.873,46.306 207.873,46.339 C 207.862,46.487 207.862,46.641 207.774,46.761 C 207.675,46.865 207.571,47.046 207.412,47.046 C 207.303,47.013 207.22,46.887 207.155,46.8 C 207.149,46.789 207.133,46.789 207.122,46.794 C 207.061,46.948 207.182,47.079 207.231,47.211 C 207.324,47.304 207.303,47.578 207.511,47.49 C 207.653,47.414 207.681,47.26 207.785,47.156 z "
       transform="matrix(1.25,0,0,-1.25,0,744.095)"
       style="fill:none;stroke:#fdb827;stroke-width:0.031;stroke-linecap:butt;stroke-linejoin:miter;stroke-miterlimit:3.86400008;stroke-dasharray:none;stroke-opacity:1"
       id="path2827" />
    <path
       d="M 213.631,47.293 C 213.73,47.167 213.801,47.03 213.861,46.882 C 213.872,46.849 213.861,46.816 213.85,46.783 C 213.828,46.756 213.796,46.717 213.757,46.745 C 213.648,46.783 213.664,46.953 213.527,46.942 C 213.423,46.948 213.362,46.86 213.28,46.816 C 213.138,46.69 212.946,46.558 212.913,46.366 C 212.885,46.295 212.896,46.196 212.836,46.158 C 212.798,46.147 212.754,46.18 212.754,46.213 C 212.732,46.465 212.814,46.706 213.001,46.876 C 213.182,47.024 213.308,47.227 213.456,47.397 C 213.538,47.414 213.598,47.353 213.631,47.293"
       transform="matrix(1.25,0,0,-1.25,0,744.095)"
       style="fill:#fdb827;fill-opacity:1;fill-rule:nonzero;stroke:none"
       id="path2829" />
    <path
       d="M 213.631,47.293 C 213.73,47.167 213.801,47.03 213.861,46.882 C 213.872,46.849 213.861,46.816 213.85,46.783 C 213.828,46.756 213.796,46.717 213.757,46.745 C 213.648,46.783 213.664,46.953 213.527,46.942 C 213.423,46.948 213.362,46.86 213.28,46.816 C 213.138,46.69 212.946,46.558 212.913,46.366 C 212.885,46.295 212.896,46.196 212.836,46.158 C 212.798,46.147 212.754,46.18 212.754,46.213 C 212.732,46.465 212.814,46.706 213.001,46.876 C 213.182,47.024 213.308,47.227 213.456,47.397 C 213.538,47.414 213.598,47.353 213.631,47.293 z "
       transform="matrix(1.25,0,0,-1.25,0,744.095)"
       style="fill:none;stroke:#fdb827;stroke-width:0.031;stroke-linecap:butt;stroke-linejoin:miter;stroke-miterlimit:3.86400008;stroke-dasharray:none;stroke-opacity:1"
       id="path2831" />
    <path
       d="M 207.44,45.264 C 207.451,45.16 207.451,45.034 207.363,44.968 C 207.259,44.935 207.144,44.924 207.028,44.93 C 207.001,44.941 206.963,44.957 206.974,44.99 C 207.023,45.138 207.165,45.286 207.324,45.319 C 207.368,45.319 207.429,45.325 207.44,45.264"
       transform="matrix(1.25,0,0,-1.25,0,744.095)"
       style="fill:#fdb827;fill-opacity:1;fill-rule:nonzero;stroke:none"
       id="path2833" />
    <path
       d="M 207.44,45.264 C 207.451,45.16 207.451,45.034 207.363,44.968 C 207.259,44.935 207.144,44.924 207.028,44.93 C 207.001,44.941 206.963,44.957 206.974,44.99 C 207.023,45.138 207.165,45.286 207.324,45.319 C 207.368,45.319 207.429,45.325 207.44,45.264 z "
       transform="matrix(1.25,0,0,-1.25,0,744.095)"
       style="fill:none;stroke:#fdb827;stroke-width:0.031;stroke-linecap:butt;stroke-linejoin:miter;stroke-miterlimit:3.86400008;stroke-dasharray:none;stroke-opacity:1"
       id="path2835" />
    <path
       d="M 213.686,45.166 C 213.719,45.094 213.779,45.018 213.741,44.941 C 213.675,44.892 213.56,44.919 213.478,44.93 C 213.379,44.985 213.357,45.1 213.346,45.209 C 213.346,45.237 213.351,45.264 213.379,45.286 C 213.494,45.286 213.609,45.259 213.686,45.166"
       transform="matrix(1.25,0,0,-1.25,0,744.095)"
       style="fill:#fdb827;fill-opacity:1;fill-rule:nonzero;stroke:none"
       id="path2837" />
    <path
       d="M 213.686,45.166 C 213.719,45.094 213.779,45.018 213.741,44.941 C 213.675,44.892 213.56,44.919 213.478,44.93 C 213.379,44.985 213.357,45.1 213.346,45.209 C 213.346,45.237 213.351,45.264 213.379,45.286 C 213.494,45.286 213.609,45.259 213.686,45.166 z "
       transform="matrix(1.25,0,0,-1.25,0,744.095)"
       style="fill:none;stroke:#fdb827;stroke-width:0.031;stroke-linecap:butt;stroke-linejoin:miter;stroke-miterlimit:3.86400008;stroke-dasharray:none;stroke-opacity:1"
       id="path2839" />
    <path
       d="M 203.541,44.689 C 203.552,44.617 203.657,44.541 203.585,44.48 C 203.459,44.382 203.311,44.316 203.147,44.343 C 203.021,44.437 203.026,44.623 202.916,44.743 C 202.889,44.837 202.736,44.837 202.768,44.941 L 202.818,44.974 C 202.993,44.974 203.169,44.979 203.344,45.007 C 203.52,45.001 203.47,44.793 203.541,44.689"
       transform="matrix(1.25,0,0,-1.25,0,744.095)"
       style="fill:#ed1846;fill-opacity:1;fill-rule:nonzero;stroke:none"
       id="path2841" />
    <path
       d="M 203.541,44.689 C 203.552,44.617 203.657,44.541 203.585,44.48 C 203.459,44.382 203.311,44.316 203.147,44.343 C 203.021,44.437 203.026,44.623 202.916,44.743 C 202.889,44.837 202.736,44.837 202.768,44.941 L 202.818,44.974 C 202.993,44.974 203.169,44.979 203.344,45.007 C 203.52,45.001 203.47,44.793 203.541,44.689 z "
       transform="matrix(1.25,0,0,-1.25,0,744.095)"
       style="fill:none;stroke:#ed1846;stroke-width:0.031;stroke-linecap:butt;stroke-linejoin:miter;stroke-miterlimit:3.86400008;stroke-dasharray:none;stroke-opacity:1"
       id="path2843" />
    <path
       d="M 217.606,44.859 C 217.584,44.705 217.535,44.552 217.48,44.409 C 217.431,44.31 217.294,44.343 217.2,44.354 C 217.102,44.393 216.948,44.404 216.932,44.541 C 216.915,44.672 216.975,44.793 217.041,44.892 C 217.189,44.913 217.359,44.881 217.507,44.908 C 217.551,44.919 217.595,44.903 217.606,44.859"
       transform="matrix(1.25,0,0,-1.25,0,744.095)"
       style="fill:#ed1846;fill-opacity:1;fill-rule:nonzero;stroke:none"
       id="path2845" />
    <path
       d="M 217.606,44.859 C 217.584,44.705 217.535,44.552 217.48,44.409 C 217.431,44.31 217.294,44.343 217.2,44.354 C 217.102,44.393 216.948,44.404 216.932,44.541 C 216.915,44.672 216.975,44.793 217.041,44.892 C 217.189,44.913 217.359,44.881 217.507,44.908 C 217.551,44.919 217.595,44.903 217.606,44.859 z "
       transform="matrix(1.25,0,0,-1.25,0,744.095)"
       style="fill:none;stroke:#ed1846;stroke-width:0.031;stroke-linecap:butt;stroke-linejoin:miter;stroke-miterlimit:3.86400008;stroke-dasharray:none;stroke-opacity:1"
       id="path2847" />
    <path
       d="M 195.542,44.623 C 195.455,44.464 195.345,44.277 195.175,44.179 C 195.109,44.157 195.032,44.162 194.972,44.19 C 194.939,44.223 194.873,44.261 194.873,44.316 C 194.884,44.376 194.862,44.458 194.917,44.497 C 195.049,44.579 195.175,44.661 195.296,44.765 C 195.334,44.776 195.383,44.798 195.416,44.771 C 195.466,44.727 195.526,44.683 195.542,44.623"
       transform="matrix(1.25,0,0,-1.25,0,744.095)"
       style="fill:#ed1846;fill-opacity:1;fill-rule:nonzero;stroke:none"
       id="path2849" />
    <path
       d="M 195.542,44.623 C 195.455,44.464 195.345,44.277 195.175,44.179 C 195.109,44.157 195.032,44.162 194.972,44.19 C 194.939,44.223 194.873,44.261 194.873,44.316 C 194.884,44.376 194.862,44.458 194.917,44.497 C 195.049,44.579 195.175,44.661 195.296,44.765 C 195.334,44.776 195.383,44.798 195.416,44.771 C 195.466,44.727 195.526,44.683 195.542,44.623 z "
       transform="matrix(1.25,0,0,-1.25,0,744.095)"
       style="fill:none;stroke:#ed1846;stroke-width:0.031;stroke-linecap:butt;stroke-linejoin:miter;stroke-miterlimit:3.86400008;stroke-dasharray:none;stroke-opacity:1"
       id="path2851" />
    <path
       d="M 225.298,44.738 C 225.43,44.628 225.594,44.541 225.698,44.398 C 225.715,44.327 225.671,44.267 225.633,44.217 C 225.578,44.173 225.517,44.135 225.441,44.135 C 225.364,44.14 225.293,44.184 225.249,44.25 C 225.167,44.371 225.057,44.48 225.019,44.612 C 225.073,44.694 225.188,44.831 225.298,44.738"
       transform="matrix(1.25,0,0,-1.25,0,744.095)"
       style="fill:#ed1846;fill-opacity:1;fill-rule:nonzero;stroke:none"
       id="path2853" />
    <path
       d="M 225.298,44.738 C 225.43,44.628 225.594,44.541 225.698,44.398 C 225.715,44.327 225.671,44.267 225.633,44.217 C 225.578,44.173 225.517,44.135 225.441,44.135 C 225.364,44.14 225.293,44.184 225.249,44.25 C 225.167,44.371 225.057,44.48 225.019,44.612 C 225.073,44.694 225.188,44.831 225.298,44.738 z "
       transform="matrix(1.25,0,0,-1.25,0,744.095)"
       style="fill:none;stroke:#ed1846;stroke-width:0.031;stroke-linecap:butt;stroke-linejoin:miter;stroke-miterlimit:3.86400008;stroke-dasharray:none;stroke-opacity:1"
       id="path2855" />
    <path
       d="M 194.84,43.954 L 194.84,43.899 C 194.764,43.713 194.714,43.477 194.649,43.263 L 194.627,43.252 C 194.501,43.28 194.385,43.329 194.265,43.367 C 194.232,43.4 194.265,43.439 194.27,43.471 C 194.407,43.598 194.369,43.762 194.396,43.938 C 194.418,44.036 194.512,44.118 194.599,44.162 C 194.709,44.14 194.775,44.036 194.84,43.954"
       transform="matrix(1.25,0,0,-1.25,0,744.095)"
       style="fill:#ed1846;fill-opacity:1;fill-rule:nonzero;stroke:none"
       id="path2857" />
    <path
       d="M 194.84,43.954 L 194.84,43.899 C 194.764,43.713 194.714,43.477 194.649,43.263 L 194.627,43.252 C 194.501,43.28 194.385,43.329 194.265,43.367 C 194.232,43.4 194.265,43.439 194.27,43.471 C 194.407,43.598 194.369,43.762 194.396,43.938 C 194.418,44.036 194.512,44.118 194.599,44.162 C 194.709,44.14 194.775,44.036 194.84,43.954 z "
       transform="matrix(1.25,0,0,-1.25,0,744.095)"
       style="fill:none;stroke:#ed1846;stroke-width:0.031;stroke-linecap:butt;stroke-linejoin:miter;stroke-miterlimit:3.86400008;stroke-dasharray:none;stroke-opacity:1"
       id="path2859" />
    <path
       d="M 226.11,44.014 C 226.192,43.899 226.159,43.724 226.186,43.598 C 226.208,43.504 226.323,43.428 226.263,43.329 L 225.912,43.214 C 225.852,43.214 225.874,43.291 225.852,43.329 C 225.813,43.532 225.77,43.674 225.704,43.872 C 225.687,43.987 225.802,44.064 225.879,44.129 C 225.972,44.151 226.038,44.069 226.11,44.014"
       transform="matrix(1.25,0,0,-1.25,0,744.095)"
       style="fill:#ed1846;fill-opacity:1;fill-rule:nonzero;stroke:none"
       id="path2861" />
    <path
       d="M 226.11,44.014 C 226.192,43.899 226.159,43.724 226.186,43.598 C 226.208,43.504 226.323,43.428 226.263,43.329 L 225.912,43.214 C 225.852,43.214 225.874,43.291 225.852,43.329 C 225.813,43.532 225.77,43.674 225.704,43.872 C 225.687,43.987 225.802,44.064 225.879,44.129 C 225.972,44.151 226.038,44.069 226.11,44.014 z "
       transform="matrix(1.25,0,0,-1.25,0,744.095)"
       style="fill:none;stroke:#ed1846;stroke-width:0.031;stroke-linecap:butt;stroke-linejoin:miter;stroke-miterlimit:3.86400008;stroke-dasharray:none;stroke-opacity:1"
       id="path2863" />
  </g>
</svg>
